<?xml version="1.0"?>
<svg width="128" height="128" xmlns="http://www.w3.org/2000/svg" xmlns:svg="http://www.w3.org/2000/svg" enable-background="new 0 0 128 128" version="1.1" xml:space="preserve">
 <g class="layer">
  <title>Layer 1</title>
  <g id="_x37_">
   <path d="m63.38,2.25c-34.03,0 -61.63,27.65 -61.63,61.75c0,34.1 27.6,61.75 61.63,61.75s61.63,-27.65 61.63,-61.75c0,-34.1 -27.6,-61.75 -61.63,-61.75zm-1,116.57c-3.45,0 -6.82,-0.33 -10.09,-0.96c25.4,-4.73 44.64,-27.05 44.64,-53.86c0,-26.8 -19.24,-49.13 -44.64,-53.86c3.27,-0.64 6.64,-0.96 10.09,-0.96c30.2,0 54.69,24.56 54.69,54.82s-24.5,54.82 -54.69,54.82z" fill="#f2f29b" id="icon_12_"/>
  </g>
  <g fill="#F4F4F4" id="Layer_1" transform="matrix(1, 0, 0, 1, 0, 0)"/>
 </g>

</svg>