<?xml version="1.0" standalone="no"?>
<!DOCTYPE svg PUBLIC "-//W3C//DTD SVG 20010904//EN"
 "http://www.w3.org/TR/2001/REC-SVG-20010904/DTD/svg10.dtd">
<svg version="1.0" xmlns="http://www.w3.org/2000/svg"
 width="1280.000000pt" height="1156.000000pt" viewBox="0 0 1280.000000 1156.000000"
 preserveAspectRatio="xMidYMid meet">
<metadata>
Created by potrace 1.15, written by Peter Selinger 2001-2017
</metadata>
<g transform="translate(0.000000,1156.000000) scale(0.100000,-0.100000)"
fill="#000000" stroke="none">
<path d="M8955 11554 c-583 -49 -1077 -264 -1435 -624 -309 -310 -532 -735
-660 -1257 l-32 -131 67 -179 c37 -98 69 -180 71 -182 2 -2 30 -8 61 -12 1116
-156 1358 -187 1364 -177 4 6 12 37 18 69 7 32 23 90 36 128 22 67 23 74 9
107 -8 20 -13 38 -11 41 3 2 10 -10 16 -28 6 -18 13 -30 15 -28 2 2 29 53 60
113 166 323 388 518 666 587 73 18 390 19 485 1 305 -58 515 -156 629 -295 45
-55 55 -103 56 -263 0 -328 -107 -574 -344 -786 -126 -113 -182 -149 -515
-333 -382 -211 -502 -285 -664 -413 -288 -227 -391 -407 -537 -942 -42 -154
-110 -448 -110 -476 0 -9 30 -97 66 -194 l66 -177 197 -27 c108 -14 394 -53
636 -86 242 -33 454 -62 472 -65 31 -6 31 -6 43 52 82 407 155 570 334 749
116 115 147 136 528 347 347 193 504 286 648 385 375 258 592 526 730 902 143
389 173 901 75 1275 -14 55 -93 275 -125 349 -11 26 -32 82 -46 124 -35 101
-83 206 -126 273 -18 30 -39 65 -45 79 -18 40 -234 290 -250 290 -5 0 -22 14
-39 31 -49 52 -215 182 -324 254 -112 74 -317 183 -449 239 -281 121 -662 217
-1031 261 -123 15 -508 27 -605 19z m-368 -150 c-3 -3 -12 -4 -19 -1 -8 3 -5
6 6 6 11 1 17 -2 13 -5z m-87 -20 c-98 -26 -243 -76 -334 -115 -49 -22 -91
-37 -93 -35 -5 5 141 70 226 100 90 33 209 65 236 64 11 0 -5 -6 -35 -14z
m3107 -940 c-3 -3 -12 -4 -19 -1 -8 3 -5 6 6 6 11 1 17 -2 13 -5z m-70 -10
c-3 -3 -12 -4 -19 -1 -8 3 -5 6 6 6 11 1 17 -2 13 -5z m159 -974 c-4 -205 -18
-319 -41 -353 -22 -32 -23 -5 -3 128 11 78 22 220 25 355 6 198 8 216 16 150
4 -41 6 -167 3 -280z m-3345 134 c5 -15 8 -29 5 -31 -2 -2 -8 10 -14 26 -13
38 -5 41 9 5z m54 -143 c19 -52 34 -96 32 -98 -2 -2 -19 36 -37 84 -43 113
-44 119 -37 113 3 -3 22 -48 42 -99z m3330 -231 c3 -6 -1 -7 -9 -4 -18 7 -21
14 -7 14 6 0 13 -4 16 -10z m40 -20 c3 -6 -1 -7 -9 -4 -18 7 -21 14 -7 14 6 0
13 -4 16 -10z m50 -28 c-3 -3 -11 0 -18 7 -9 10 -8 11 6 5 10 -3 15 -9 12 -12z
m40 -20 c-3 -3 -11 0 -18 7 -9 10 -8 11 6 5 10 -3 15 -9 12 -12z m-1705 -515
c0 -2 -15 -16 -32 -33 l-33 -29 29 33 c28 30 36 37 36 29z m-420 -302 c0 -2
-10 -9 -22 -15 -22 -11 -22 -10 -4 4 21 17 26 19 26 11z m1710 -540 c0 -5 -5
-3 -10 5 -5 8 -10 20 -10 25 0 6 5 3 10 -5 5 -8 10 -19 10 -25z m-1967 -852
c-40 -86 -109 -287 -118 -345 -3 -21 -10 -38 -15 -38 -15 0 -12 20 21 131 27
94 130 329 143 329 3 0 -11 -35 -31 -77z"/>
<path d="M2945 9574 c-662 -65 -1106 -179 -1537 -395 -411 -206 -779 -528
-1008 -880 -324 -501 -453 -1146 -379 -1895 l12 -122 120 -143 c66 -79 130
-156 142 -171 l23 -27 434 85 c238 47 601 118 806 158 205 41 375 76 378 78 2
3 -1 54 -7 114 -27 262 34 597 155 859 134 288 387 475 768 565 210 50 503 65
661 35 94 -18 209 -62 277 -105 39 -25 58 -47 81 -91 69 -138 111 -285 129
-457 19 -186 -11 -377 -90 -564 l-28 -67 62 -4 61 -3 -62 -2 -62 -2 -47 -79
c-75 -127 -160 -234 -340 -431 -596 -650 -799 -953 -872 -1302 -24 -118 -24
-640 2 -887 39 -390 38 -385 91 -449 26 -31 88 -107 139 -169 56 -69 98 -112
110 -113 17 0 1399 272 1477 291 l36 9 -9 57 c-54 378 -48 608 21 806 58 168
173 357 286 471 187 189 689 769 796 921 184 261 277 434 337 625 90 286 104
374 104 645 0 224 -20 394 -73 615 -96 404 -224 662 -485 976 -313 378 -405
474 -539 568 -38 27 -75 54 -80 61 -15 18 -181 112 -231 131 l-41 16 -73 -47
c-40 -25 -74 -45 -75 -43 -2 2 28 23 66 48 38 25 69 47 69 50 0 10 -231 97
-355 135 -147 45 -348 88 -515 110 -119 17 -628 29 -735 19z m-1625 -559 c0
-2 -10 -9 -22 -15 -22 -11 -22 -10 -4 4 21 17 26 19 26 11z m-55 -33 c-6 -5
-56 -39 -113 -76 -126 -83 -233 -167 -334 -263 -42 -40 -80 -73 -85 -73 -15 1
169 169 261 239 50 38 131 95 180 125 82 51 115 69 91 48z m4069 -884 c55
-163 97 -333 110 -450 4 -37 2 -48 -8 -48 -8 0 -17 12 -20 28 -61 321 -98 472
-146 604 -17 45 -30 84 -29 87 2 14 61 -127 93 -221z m-3283 -395 c13 -16 12
-17 -3 -4 -10 7 -18 15 -18 17 0 8 8 3 21 -13z m50 -60 c13 -16 12 -17 -3 -4
-10 7 -18 15 -18 17 0 8 8 3 21 -13z m50 -60 c13 -16 12 -17 -3 -4 -10 7 -18
15 -18 17 0 8 8 3 21 -13z m50 -60 c13 -16 12 -17 -3 -4 -10 7 -18 15 -18 17
0 8 8 3 21 -13z m-839 -645 c3 -27 2 -48 -3 -48 -5 0 -9 23 -9 52 0 62 5 60
12 -4z m4279 -685 c13 -16 12 -17 -3 -4 -10 7 -18 15 -18 17 0 8 8 3 21 -13z
m50 -60 c13 -16 12 -17 -3 -4 -10 7 -18 15 -18 17 0 8 8 3 21 -13z m-2052 -93
c-23 -27 -44 -50 -47 -50 -5 0 14 25 57 73 42 46 35 30 -10 -23z m2102 33 c13
-16 12 -17 -3 -4 -10 7 -18 15 -18 17 0 8 8 3 21 -13z m-1850 -1647 c-21 -188
-8 -409 26 -450 10 -12 11 -15 3 -8 -8 6 -21 12 -31 12 -14 0 -17 18 -23 128
-7 134 -3 229 16 350 16 103 21 82 9 -32z m80 -493 c13 -16 12 -17 -3 -4 -17
13 -22 21 -14 21 2 0 10 -8 17 -17z m218 -176 c1 -4 -44 28 -99 73 -55 45
-100 83 -100 86 0 7 199 -151 199 -159z m-1412 11 c-3 -8 -6 -5 -6 6 -1 11 2
17 5 13 3 -3 4 -12 1 -19z"/>
<path d="M8042 5763 c-5 -26 -58 -341 -118 -700 l-108 -651 64 -172 c64 -173
79 -200 106 -200 9 0 329 -43 712 -95 383 -53 705 -95 716 -93 19 3 29 54 133
673 61 369 112 684 112 700 1 26 -117 356 -132 372 -3 3 -322 50 -709 104
-387 54 -717 101 -735 104 -31 5 -31 5 -41 -42z m1185 -635 c-3 -8 -6 -5 -6 6
-1 11 2 17 5 13 3 -3 4 -12 1 -19z m-56 -336 c-28 -164 -51 -302 -51 -306 0
-4 -4 -5 -8 -2 -5 3 17 145 47 316 31 171 57 306 59 301 2 -5 -20 -144 -47
-309z"/>
<path d="M3602 2845 c-459 -90 -836 -166 -839 -169 -4 -3 54 -366 127 -807
l134 -801 139 -167 c77 -91 142 -167 146 -168 10 -4 1670 322 1677 329 3 4
-54 367 -128 807 l-133 801 -123 148 c-68 81 -133 157 -145 168 l-22 22 -833
-163z m705 -597 c-3 -7 -5 -2 -5 12 0 14 2 19 5 13 2 -7 2 -19 0 -25z m10 -70
c-3 -7 -5 -2 -5 12 0 14 2 19 5 13 2 -7 2 -19 0 -25z m10 -55 c-3 -10 -5 -4
-5 12 0 17 2 24 5 18 2 -7 2 -21 0 -30z m82 -477 c1 -11 -1 -17 -4 -14 -7 6
-75 433 -74 457 1 18 77 -413 78 -443z"/>
</g>
</svg>
