<?xml version="1.0"?>
<svg width="128" height="128" xmlns="http://www.w3.org/2000/svg" xmlns:svg="http://www.w3.org/2000/svg" enable-background="new 0 0 128 128" version="1.1" xml:space="preserve">

 <g class="layer">
  <title>Layer 1</title>
  <g display="none" id="row3">
   <path d="m75.55,95.84c-0.57,0 -1.11,-0.25 -1.5,-0.7l-6.15,-7.13c-1.1,-1.28 -2.71,-2.04 -4.4,-2.08c-1.7,-0.04 -3.34,0.65 -4.5,1.88l-6.47,6.83c-0.59,0.63 -1.48,0.81 -2.26,0.46c-0.78,-0.35 -1.25,-1.12 -1.19,-1.98l0.7,-9.38c0.13,-1.69 -0.48,-3.36 -1.65,-4.59c-1.17,-1.23 -2.81,-1.92 -4.5,-1.85l-9.41,0.26c-0.84,0 -1.61,-0.48 -1.92,-1.28c-0.31,-0.8 -0.09,-1.67 0.56,-2.23l7.13,-6.15c1.28,-1.1 2.04,-2.71 2.08,-4.4s-0.65,-3.34 -1.88,-4.5l-6.83,-6.47c-0.63,-0.59 -0.81,-1.47 -0.46,-2.26c0.34,-0.78 1.12,-1.25 1.98,-1.18l0,0l9.38,0.69c1.7,0.13 3.36,-0.47 4.59,-1.64c1.23,-1.18 1.9,-2.82 1.85,-4.51l-0.26,-9.41c-0.02,-0.85 0.48,-1.61 1.28,-1.92c0.8,-0.31 1.67,-0.09 2.23,0.56l6.15,7.13c1.1,1.28 2.71,2.04 4.4,2.08c1.69,0.04 3.34,-0.65 4.5,-1.88l6.47,-6.83c0.59,-0.63 1.47,-0.81 2.26,-0.46c0.78,0.35 1.25,1.12 1.18,1.98l-0.69,9.38c-0.13,1.69 0.47,3.36 1.64,4.59c1.17,1.23 2.82,1.91 4.51,1.85l9.41,-0.26c0.87,0.02 1.61,0.48 1.92,1.28c0.31,0.8 0.09,1.67 -0.56,2.23l-7.13,6.15c-1.28,1.1 -2.04,2.71 -2.08,4.4s0.65,3.34 1.88,4.5l6.83,6.47c0.63,0.59 0.81,1.47 0.46,2.26c-0.35,0.78 -1.12,1.24 -1.98,1.18l-9.38,-0.69c-1.69,-0.12 -3.36,0.47 -4.59,1.64c-1.23,1.18 -1.9,2.82 -1.85,4.51l0.26,9.41c0.02,0.86 -0.48,1.61 -1.28,1.92c-0.24,0.09 -0.48,0.14 -0.73,0.14zm-12.19,-11.91c0.06,0 0.12,0 0.18,0c2.26,0.05 4.4,1.06 5.88,2.77l6.14,7.13l-0.26,-9.4c-0.07,-2.26 0.83,-4.45 2.47,-6.01s3.86,-2.36 6.12,-2.2l9.38,0.7l-6.84,-6.47c-1.64,-1.55 -2.55,-3.73 -2.5,-5.99c0.05,-2.26 1.06,-4.4 2.78,-5.88l7.12,-6.14l-9.4,0.26c-2.3,0.06 -4.45,-0.84 -6.01,-2.47s-2.36,-3.86 -2.2,-6.12l0.7,-9.38l-6.46,6.84c-1.56,1.64 -3.79,2.53 -6,2.5c-2.26,-0.05 -4.4,-1.06 -5.88,-2.78l-6.14,-7.12l0.26,9.4c0.06,2.26 -0.84,4.45 -2.47,6.01c-1.63,1.56 -3.85,2.37 -6.12,2.19l-9.38,-0.69c-0.01,0 -0.01,0 -0.01,0l6.85,6.47c1.64,1.55 2.55,3.73 2.5,5.99c-0.05,2.26 -1.06,4.4 -2.78,5.88l-7.12,6.14l9.4,-0.26c2.28,-0.07 4.45,0.84 6.01,2.47c1.56,1.63 2.36,3.86 2.19,6.12l-0.69,9.38l6.46,-6.84c1.51,-1.6 3.62,-2.5 5.82,-2.5zm0.64,-37.7c-9.81,0 -17.77,7.96 -17.77,17.77c0,9.81 7.96,17.77 17.77,17.77s17.77,-7.96 17.77,-17.77c0,-9.81 -7.96,-17.77 -17.77,-17.77zm0,4.26c-7.44,0 -13.5,6.06 -13.5,13.51l-1,0c0,-8 6.5,-14.51 14.5,-14.51l0,1z" display="inline" fill="#414141" id="icon:4_2_"/>
   <path d="m64.03,94l-0.03,0c-3.96,0 -7.81,-0.76 -11.45,-2.26l0.77,-1.85c3.38,1.4 6.98,2.11 10.68,2.11l0.03,2zm11.47,-2.28l-0.76,-1.85c3.4,-1.42 6.45,-3.46 9.07,-6.08l1.41,1.41c-2.8,2.81 -6.07,5 -9.72,6.52zm-32.68,-6.47c-2.81,-2.81 -5.01,-6.07 -6.52,-9.72l1.84,-0.77c1.42,3.4 3.47,6.45 6.09,9.07l-1.41,1.42zm48.9,-9.77l-1.84,-0.77c1.41,-3.4 2.12,-7 2.12,-10.71l0,-0.12l2,0l0,0.1c0,4 -0.77,7.86 -2.28,11.5zm-57.33,-11.43l-0.39,-0.01c0,-3.99 0.76,-7.83 2.25,-11.46l1.85,0.76c-1.39,3.39 -2.1,6.97 -2.1,10.66l-1.61,0.05zm55.44,-10.87c-1.42,-3.39 -3.47,-6.44 -6.1,-9.05l1.41,-1.42c2.81,2.8 5.01,6.06 6.54,9.7l-1.85,0.77zm-45.68,-8.93l-1.42,-1.41c2.8,-2.81 6.06,-5.01 9.71,-6.53l0.77,1.85c-3.4,1.42 -6.45,3.47 -9.06,6.09zm30.48,-6.16c-3.37,-1.39 -6.95,-2.09 -10.63,-2.09l-0.09,-2l0.09,0c3.94,0 7.77,0.75 11.39,2.24l-0.76,1.85zm-10.63,4.41c-11.87,0 -21.5,9.63 -21.5,21.5s9.63,21.5 21.5,21.5s21.5,-9.63 21.5,-21.5s-9.63,-21.5 -21.5,-21.5z" display="inline" fill="#414141" id="icon:3_1_"/>
   <path d="m64,45.36c-10.34,0 -18.72,8.38 -18.72,18.72c0,10.34 8.38,18.72 18.72,18.72s18.72,-8.38 18.72,-18.72c0,-10.34 -8.38,-18.72 -18.72,-18.72zm0,3.72c-8.27,0 -15,6.73 -15,15l-1,0c0,-8.82 7.18,-16 16,-16l0,1zm4.01,-7.89l-8.02,0l4.01,-9.19l4.01,9.19zm-4.01,54.81l4.01,-9.19l-8.02,0l4.01,9.19zm22.81,-27.99l0,-8.02l9.19,4.01l-9.19,4.01zm-54.81,-4.01l9.19,4.01l0,-8.02l-9.19,4.01zm50.96,-13.29l-5.67,-5.67l9.34,-3.67l-3.67,9.34zm-41.59,35.92l9.34,-3.67l-5.67,-5.67l-3.67,9.34zm35.92,-3.67l5.68,-5.67l3.66,9.34l-9.34,-3.67zm-35.92,-41.59l3.67,9.34l5.67,-5.67l-9.34,-3.67z" display="inline" fill="#414141" id="icon:2_1_"/>
   <path d="m44.35,64.06c0,-10.85 8.8,-19.65 19.65,-19.65s19.65,8.8 19.65,19.65s-8.8,19.66 -19.65,19.66s-19.65,-8.8 -19.65,-19.66zm20.65,21.73l-2,0l0,10.21l2,0l0,-10.21zm-8.41,-1.28l-1.85,-0.77l-3.91,9.44l1.85,0.77l3.91,-9.44zm20.58,8.67l-3.51,-8.48l-1.85,0.77l3.51,8.48l1.85,-0.77zm10.16,-7.26l-6.49,-6.49l-1.41,1.41l6.49,6.49l1.41,-1.41zm-38.03,-5.81l-1.41,-1.41l-7.23,7.22l1.42,1.41l7.22,-7.22zm44.65,-4.79l-8.48,-3.51l-0.77,1.85l8.48,3.51l0.77,-1.85zm-49.69,-2.06l-0.77,-1.85l-9.44,3.91l0.77,1.85l9.44,-3.91zm51.74,-10.26l-9.18,0l0,2l9.18,0l0,-2zm-53.79,0l-10.21,0l0,2l10.21,0l0,-2zm2.05,-8.26l-9.44,-3.91l-0.77,1.85l9.44,3.91l0.77,-1.85zm49.69,-2.06l-0.77,-1.85l-8.48,3.51l0.77,1.85l8.48,-3.51zm-44.65,-4.79l-7.22,-7.22l-1.42,1.41l7.23,7.22l1.41,-1.41zm38.03,-5.81l-1.41,-1.41l-6.49,6.49l1.41,1.41l6.49,-6.49zm-30.74,1.41l-3.91,-9.44l-1.85,0.77l3.91,9.43l1.85,-0.76zm20.58,-8.67l-1.85,-0.77l-3.51,8.48l1.85,0.77l3.51,-8.48zm-12.17,-2.82l-2,0l0,9.18l2,0l0,-9.18z" display="inline" fill="#414141" id="icon:1_1_"/>
  </g>
  <g id="row2">
   <path d="m64,99.22l-3.38,-13.89l-7.51,12.2l1.09,-14.28l-10.92,9.25l5.45,-13.23l-13.23,5.45l9.25,-10.92l-14.28,1.09l12.2,-7.51l-13.89,-3.38l13.89,-3.38l-12.19,-7.51l14.27,1.09l-9.25,-10.92l13.23,5.45l-5.45,-13.23l10.92,9.25l-1.09,-14.28l7.5,12.2l3.39,-13.89l3.39,13.89l7.5,-12.19l-1.09,14.27l10.92,-9.25l-5.45,13.23l13.23,-5.44l-9.25,10.91l14.28,-1.09l-12.2,7.51l13.89,3.38l-13.89,3.39l12.2,7.5l-14.28,-1.09l9.25,10.92l-13.23,-5.45l5.44,13.23l-10.91,-9.25l1.09,14.28l-7.51,-12.2l-3.38,13.89zm-2.58,-19.02l2.58,10.58l2.58,-10.58l5.69,9.25l-0.83,-10.83l8.3,7.04l-4.14,-10.06l10.06,4.14l-7.04,-8.3l10.83,0.83l-9.25,-5.69l10.58,-2.58l-10.58,-2.58l9.25,-5.69l-10.82,0.83l7.03,-8.3l-10.06,4.14l4.14,-10.06l-8.3,7.04l0.83,-10.83l-5.69,9.25l-2.58,-10.57l-2.58,10.57l-5.69,-9.25l0.83,10.83l-8.3,-7.04l4.14,10.06l-10.06,-4.14l7.03,8.3l-10.82,-0.83l9.25,5.7l-10.58,2.57l10.58,2.58l-9.25,5.69l10.82,-0.83l-7.03,8.3l10.06,-4.14l-4.14,10.06l8.29,-7.03l-0.82,10.82l5.69,-9.25zm2.58,-0.63c8.6,0 15.57,-6.97 15.57,-15.57s-6.97,-15.57 -15.57,-15.57s-15.57,6.97 -15.57,15.57s6.97,15.57 15.57,15.57z" display="none" fill="#f4f75b" id="icon:4"/>
   <path d="m97.59,64l-9.62,-7.79l3.2,-11.96l-12.36,-0.64l-4.43,-11.57l-10.38,6.77l-10.38,-6.76l-4.43,11.56l-12.36,0.64l3.2,11.96l-9.62,7.79l9.62,7.79l-3.2,11.96l12.36,0.64l4.43,11.57l10.38,-6.77l10.38,6.77l4.43,-11.57l12.36,-0.64l-3.2,-11.96l9.62,-7.79zm-8.99,17.88l-11.2,0.58l-4,10.47l-9.4,-6.12l-9.4,6.12l-4,-10.48l-11.2,-0.57l2.9,-10.83l-8.71,-7.05l8.71,-7.05l-2.9,-10.83l11.2,-0.58l4,-10.47l9.4,6.12l9.4,-6.12l4,10.48l11.2,0.57l-2.9,10.83l8.71,7.05l-8.71,7.05l2.9,10.83zm-24.6,-38.38c-11.32,0 -20.5,9.18 -20.5,20.5s9.18,20.5 20.5,20.5s20.5,-9.18 20.5,-20.5s-9.18,-20.5 -20.5,-20.5zm0,4c-9.1,0 -16.5,7.4 -16.5,16.5l-1,0c0,-9.65 7.85,-17.5 17.5,-17.5l0,1z" display="none" fill="#f4f75b" id="icon:3"/>
   <path d="m47.59,63.65c0,-9.07 7.35,-16.41 16.41,-16.41s16.41,7.34 16.41,16.41s-7.35,16.4 -16.41,16.4s-16.41,-7.34 -16.41,-16.4zm17.41,20.11l-2,0l0,15.24l2,0l0,-15.24zm-9.43,-1.86l-1.76,-0.94l-7.18,13.45l1.76,0.94l7.18,-13.45zm26.39,12.16l-7.44,-13.3l-1.74,0.98l7.44,13.3l1.74,-0.98zm-22.27,-10.53l-1.93,-0.51l-1.96,7.36l1.93,0.51l1.96,-7.36zm12.48,6.75l-2.05,-7.34l-1.93,0.54l2.05,7.34l1.93,-0.54zm11.47,-7.13l-5.3,-5.48l-1.43,1.39l5.3,5.48l1.43,-1.39zm-33.05,-4.22l-1.43,-1.41l-5.35,5.43l1.42,1.4l5.36,-5.42zm43.84,2.45l-13.03,-7.94l-1.04,1.71l13.03,7.94l1.04,-1.71zm-47.14,-6.75l-0.98,-1.74l-13.27,7.52l0.99,1.74l13.26,-7.52zm43.13,-3.52l-7.3,-2.21l-0.58,1.91l7.3,2.22l0.58,-1.92zm-45.68,-1.4l-0.47,-1.94l-7.41,1.78l0.47,1.94l7.41,-1.78zm54.3,-5.15l-15.24,-0.68l-0.09,2l15.24,0.68l0.09,-2zm-54.76,-2.44l-15.24,-0.68l-0.09,2l15.25,0.68l0.08,-2zm46.51,-3.49l-0.47,-1.95l-7.42,1.79l0.47,1.94l7.42,-1.78zm-45.69,-1.26l-7.3,-2.22l-0.58,1.92l7.3,2.21l0.58,-1.91zm49.86,-9.78l-0.99,-1.74l-13.26,7.52l0.98,1.74l13.27,-7.52zm-47.32,5.26l-13.02,-7.94l-1.05,1.71l13.03,7.94l1.04,-1.71zm36.2,-7.62l-1.43,-1.41l-5.35,5.43l1.42,1.41l5.36,-5.43zm-33.1,3.89l-5.3,-5.48l-1.44,1.39l5.3,5.48l1.44,-1.39zm4.49,-2.86l-7.45,-13.3l-1.74,0.97l7.44,13.31l1.75,-0.98zm26.14,-12.67l-1.76,-0.94l-7.18,13.45l1.76,0.94l7.18,-13.45zm-21.92,11.11l-2.05,-7.34l-1.92,0.54l2.04,7.34l1.93,-0.54zm12.4,-6.9l-1.94,-0.52l-1.96,7.37l1.94,0.51l1.96,-7.36zm-6.85,-8.8l-2,0l0,15.24l2,0l0,-15.24z" display="none" fill="#f4f75b" id="icon:2"/>
   <path d="m94.53,61.53c-3.99,-3.23 -5.7,-8.52 -4.37,-13.48l1.01,-3.8l-3.91,-0.2c-5.14,-0.26 -9.64,-3.54 -11.48,-8.34l-1.4,-3.67l-3.29,2.15c-4.3,2.8 -9.88,2.8 -14.18,0l-3.29,-2.14l-1.4,3.66c-1.84,4.8 -6.34,8.08 -11.48,8.34l-3.91,0.2l1.01,3.8c1.33,4.96 -0.38,10.25 -4.37,13.48l-3.06,2.47l3.06,2.47c3.99,3.23 5.7,8.52 4.37,13.48l-1.01,3.8l3.91,0.2c5.14,0.26 9.64,3.54 11.48,8.34l1.4,3.67l3.29,-2.15c4.3,-2.8 9.88,-2.8 14.18,0l3.29,2.15l1.4,-3.67c1.84,-4.8 6.34,-8.08 11.48,-8.34l3.91,-0.2l-1.01,-3.8c-1.33,-4.96 0.38,-10.25 4.37,-13.48l3.06,-2.47l-3.06,-2.47zm-1.26,3.39c-4.6,3.72 -6.58,9.83 -5.05,15.55l0.38,1.41l-1.45,0.07c-5.92,0.31 -11.12,4.08 -13.23,9.62l-0.52,1.36l-1.21,-0.79c-4.98,-3.24 -11.4,-3.24 -16.38,0l-1.21,0.79l-0.52,-1.36c-2.11,-5.54 -7.31,-9.31 -13.23,-9.62l-1.45,-0.07l0.38,-1.41c1.53,-5.72 -0.45,-11.83 -5.05,-15.55l-1.14,-0.92l1.14,-0.92c4.6,-3.72 6.58,-9.83 5.05,-15.55l-0.38,-1.41l1.45,-0.07c5.92,-0.31 11.12,-4.08 13.23,-9.62l0.52,-1.36l1.21,0.79c4.98,3.24 11.4,3.24 16.38,0l1.21,-0.79l0.52,1.36c2.11,5.54 7.31,9.31 13.23,9.62l1.45,0.07l-0.38,1.41c-1.53,5.72 0.45,11.83 5.05,15.55l1.14,0.92l-1.14,0.92zm-29.27,-23.42c-12.43,0 -22.5,10.07 -22.5,22.5s10.07,22.5 22.5,22.5s22.5,-10.07 22.5,-22.5s-10.07,-22.5 -22.5,-22.5zm0,3.5c-10.48,0 -19,8.52 -19,19c0,3.01 0.68,5.88 2.03,8.55l-0.9,0.45c-1.41,-2.81 -2.13,-5.84 -2.13,-9c0,-11.03 8.97,-20 20,-20l0,1z" fill="#f4f75b" id="icon:1"/>
  </g>
  <g id="row1">
   <path d="m44.35,64.06c0,-10.85 8.8,-19.65 19.65,-19.65s19.65,8.8 19.65,19.65s-8.8,19.66 -19.65,19.66s-19.65,-8.8 -19.65,-19.66zm20.65,21.73l-2,0l0,10.21l2,0l0,-10.21zm22.33,0.13l-6.49,-6.49l-1.41,1.41l6.49,6.49l1.41,-1.41zm-38.03,-5.81l-1.41,-1.41l-7.22,7.22l1.41,1.41l7.22,-7.22zm46.7,-17.11l-9.18,0l0,2l9.18,0l0,-2zm-53.79,0l-10.21,0l0,2l10.21,0l0,-2zm7.09,-15.11l-7.22,-7.23l-1.41,1.42l7.22,7.22l1.41,-1.41zm38.03,-5.81l-1.41,-1.41l-6.49,6.49l1.41,1.41l6.49,-6.49zm-22.33,-10.08l-2,0l0,9.18l2,0l0,-9.18z" display="none" fill="#414141" id="icon:4_1_"/>
   <path d="m81.23,69.22l14.77,-5.22l-14.77,-5.22c-0.35,-1.14 -0.8,-2.24 -1.36,-3.27l6.76,-14.14l-14.14,6.76c-1.03,-0.56 -2.13,-1.01 -3.27,-1.36l-5.22,-14.77l-5.22,14.77c-1.14,0.35 -2.24,0.8 -3.27,1.36l-14.14,-6.76l6.76,14.14c-0.56,1.03 -1.01,2.13 -1.36,3.27l-14.77,5.22l14.77,5.22c0.35,1.14 0.8,2.24 1.36,3.27l-6.76,14.14l14.14,-6.76c1.03,0.56 2.13,1.01 3.27,1.36l5.22,14.77l5.22,-14.77c1.14,-0.35 2.24,-0.8 3.27,-1.36l14.14,6.76l-6.76,-14.14c0.56,-1.03 1.01,-2.13 1.36,-3.27zm0.53,-8.12l8.24,2.9l-8.24,2.9c0.16,-0.94 0.24,-1.91 0.24,-2.9s-0.08,-1.96 -0.24,-2.9zm-35.52,5.8l-8.24,-2.9l8.24,-2.9c-0.16,0.94 -0.24,1.91 -0.24,2.9s0.08,1.96 0.24,2.9zm-0.62,-21.28l7.88,3.77c-1.59,1.13 -2.98,2.52 -4.11,4.11l-3.77,-7.88zm0,36.76l3.77,-7.88c1.13,1.59 2.52,2.98 4.11,4.11l-7.88,3.77zm10.61,-30.31c-1.66,1.08 -3.08,2.5 -4.16,4.16c-0.94,1.43 -1.63,3.04 -2,4.77c-0.21,0.97 -0.32,1.97 -0.32,3c0,1.02 0.11,2.02 0.32,3c0.35,1.68 1.01,3.28 1.96,4.73c0.04,0.08 0.1,0.16 0.15,0.24l-1.24,0.84c-1.76,-2.61 -2.69,-5.65 -2.69,-8.81c0,-8.68 7.07,-15.75 15.75,-15.75l0,1.5c-1.03,0 -2.03,0.11 -3,0.32c-1.73,0.37 -3.34,1.06 -4.77,2zm7.77,37.93l-2.9,-8.24c0.94,0.16 1.91,0.24 2.9,0.24s1.96,-0.08 2.9,-0.24l-2.9,8.24zm0,-44c-0.99,0 -1.96,0.08 -2.9,0.24l2.9,-8.24l2.9,8.24c-0.94,-0.16 -1.91,-0.24 -2.9,-0.24zm18.38,-0.38l-3.77,7.88c-1.13,-1.59 -2.52,-2.98 -4.11,-4.11l7.88,-3.77zm0,36.76l-7.88,-3.77c1.59,-1.13 2.98,-2.52 4.11,-4.11l3.77,7.88z" display="none" fill="#414141" id="icon:3_2_"/>
   <path d="m63,29.67l0,14.86c0.33,-0.02 0.66,-0.03 1,-0.03s0.67,0.01 1,0.03l0,-14.86l-2,0zm-8.39,8.71l-1.86,0.75l2.92,7.23c0.6,-0.28 1.21,-0.53 1.85,-0.75l-2.91,-7.23zm19.21,0.16l-3.04,7.17c0.63,0.24 1.25,0.5 1.84,0.8l3.04,-7.19l-1.84,-0.78zm-33.39,0.48l-1.41,1.41l10.5,10.51c0.45,-0.5 0.92,-0.97 1.42,-1.42l-10.51,-10.5zm47.14,0l-10.51,10.5c0.5,0.45 0.97,0.92 1.42,1.42l10.5,-10.51l-1.41,-1.41zm-48.55,13.62l-0.78,1.84l7.34,3.11c0.22,-0.64 0.47,-1.25 0.76,-1.85l-7.32,-3.1zm50.15,0.41l-7.37,2.98c0.27,0.6 0.51,1.22 0.72,1.86l7.4,-2.98l-0.75,-1.86zm-44.64,9.95l-14.86,0l0,2l14.86,0c-0.02,-0.33 -0.03,-0.66 -0.03,-1c0,-0.34 0.01,-0.67 0.03,-1zm38.94,0c0.02,0.33 0.03,0.66 0.03,1c0,0.34 -0.01,0.67 -0.03,1l14.86,0l0,-2l-14.86,0zm-37.81,7.63l-7.58,3.06l0.75,1.86l7.6,-3.07c-0.28,-0.6 -0.54,-1.21 -0.77,-1.85zm36.57,0.3c-0.24,0.63 -0.5,1.24 -0.81,1.83l7.56,3.2l0.78,-1.84l-7.53,-3.19zm-32.71,6.13l-10.5,10.51l1.41,1.41l10.51,-10.5c-0.5,-0.45 -0.97,-0.92 -1.42,-1.42zm28.96,0c-0.45,0.5 -0.92,0.97 -1.42,1.42l10.51,10.5l1.41,-1.41l-10.5,-10.51zm-22.89,4.54l-3.25,7.68l1.84,0.78l3.26,-7.69c-0.64,-0.23 -1.25,-0.49 -1.85,-0.77zm16.53,0.13c-0.6,0.28 -1.22,0.52 -1.85,0.73l3.12,7.75l1.86,-0.74l-3.13,-7.74zm-8.12,1.77c-0.34,0 -0.67,-0.01 -1,-0.03l0,14.86l2,0l0,-14.86c-0.33,0.02 -0.66,0.03 -1,0.03zm0,-37.5c-9.94,0 -18,8.06 -18,18s8.06,18 18,18s18,-8.06 18,-18s-8.06,-18 -18,-18zm0,3.5c-8,0 -14.5,6.5 -14.5,14.5l-1,0c0,-8.55 6.95,-15.5 15.5,-15.5l0,1z" display="none" fill="#414141" id="icon:2_2_"/>
   <path d="m64,42c-12.15,0 -22,9.85 -22,22c0,12.15 9.85,22 22,22s22,-9.85 22,-22c0,-12.15 -9.85,-22 -22,-22zm0,4.5c-9.65,0 -17.5,7.85 -17.5,17.5l-1,0c0,-10.2 8.3,-18.5 18.5,-18.5l0,1zm0,47.61l-6.34,-2.98l-7.04,0l-4.39,-5.37l-6.35,-2.98l-1.57,-6.7l-4.4,-5.37l1.57,-6.71l-1.57,-6.7l4.4,-5.38l1.57,-6.7l6.35,-2.98l4.39,-5.37l7.04,0l6.34,-2.97l6.34,2.97l7.04,0l4.39,5.37l6.35,2.98l1.57,6.7l4.4,5.37l-1.57,6.71l1.57,6.7l-4.4,5.38l-1.57,6.7l-6.35,2.98l-4.39,5.37l-7.04,0l-6.34,2.98zm-12.43,-4.98l6.54,0l5.89,2.76l5.89,-2.76l6.54,0l4.08,-4.99l5.88,-2.76l1.46,-6.21l4.07,-4.97l-1.46,-6.2l1.45,-6.2l-4.06,-4.97l-1.46,-6.21l-5.88,-2.76l-4.08,-4.99l-6.54,0l-5.89,-2.77l-5.89,2.77l-6.54,0l-4.08,4.98l-5.88,2.77l-1.46,6.21l-4.06,4.97l1.45,6.2l-1.45,6.2l4.06,4.97l1.46,6.21l5.88,2.76l4.08,4.99z" display="none" fill="#414141" id="icon:1_2_"/>
  </g>
 </g>
</svg>