<?xml version="1.0"?>
<svg width="64" height="64" xmlns="http://www.w3.org/2000/svg" xmlns:svg="http://www.w3.org/2000/svg">
 <defs>
  <linearGradient fx="0.11" fy="0.01" id="svg_6" spreadMethod="reflect" x1="0.93" x2="0.05" y1="0.49" y2="0.48">
   <stop offset="0" stop-color="#ffff59" stop-opacity="1"/>
   <stop offset="1" stop-color="#2d08d1" stop-opacity="1"/>
  </linearGradient>
  <linearGradient fx="0.1" fy="0.02" id="svg_7" spreadMethod="reflect" x1="0.92" x2="0.04" y1="0.49" y2="0.5">
   <stop offset="0" stop-color="#ffff59" stop-opacity="1"/>
   <stop offset="1" stop-color="#2d08d1" stop-opacity="1"/>
  </linearGradient>
 </defs>
 <g class="layer">
  <title>Layer 1</title>
  <path d="m54.87,45.88l-2.02,0c-1.24,-10.68 -10.34,-19 -21.35,-19l-6.5,0l0,4c0,0.82 -0.94,1.29 -1.6,0.8l-7,-5c-0.54,-0.4 -0.54,-1.2 0,-1.6l7,-5c0.66,-0.49 1.6,-0.02 1.6,0.8l0,4l6.5,0c12.12,0 22.12,9.21 23.37,21z" fill="url(#svg_7)" id="svg_1"/>
  <path d="m31,20l-2,0l0,-5.92c0,-0.68 -0.3,-1.36 -0.87,-1.73c-0.35,-0.23 -0.74,-0.35 -1.13,-0.35c-0.43,0 -0.86,0.15 -1.22,0.43l-3.78,2.97l0,-1.32c0,-0.68 -0.3,-1.36 -0.87,-1.73c-0.35,-0.23 -0.74,-0.35 -1.13,-0.35c-0.43,0 -0.86,0.15 -1.22,0.43l-13.25,10.41c-0.97,0.76 -1.53,1.91 -1.53,3.16s0.56,2.4 1.53,3.17l13.25,10.4c0.36,0.28 0.79,0.43 1.22,0.43c0.39,0 0.78,-0.12 1.13,-0.35c0.57,-0.37 0.87,-1.05 0.87,-1.73l0,-1.32l3.78,2.97c0.36,0.28 0.79,0.43 1.22,0.43c0.39,0 0.78,-0.12 1.13,-0.35c0.57,-0.37 0.87,-1.05 0.87,-1.73l0,-5.92l2,0c8.76,0 16.03,6.57 16.91,15.27c0.16,1.56 1.44,2.73 2.99,2.73l6.02,0c0.83,0 1.64,-0.35 2.2,-0.97c0.57,-0.61 0.86,-1.43 0.8,-2.26c-1.15,-15.01 -13.85,-26.77 -28.92,-26.77zm-11,17.92c0,0.02 0,0.04 -0.01,0.06l-13.22,-10.38c-0.5,-0.39 -0.77,-0.96 -0.77,-1.6c0,-0.63 0.28,-1.21 0.77,-1.59l13.22,-10.39c0.01,0.02 0.01,0.04 0.01,0.06l0,2.89l-7.47,5.87c-0.97,0.76 -1.53,1.91 -1.53,3.16s0.56,2.4 1.53,3.17l7.47,5.86l0,2.89zm37.66,9.75c-0.2,0.21 -0.46,0.33 -0.75,0.33l-6.02,0c-0.51,0 -0.93,-0.4 -0.99,-0.93c-0.98,-9.73 -9.11,-17.07 -18.9,-17.07l-2,0l-1,0l-1,0l0,7.92c0,0.02 0,0.04 -0.01,0.06l-13.22,-10.38c-0.5,-0.39 -0.77,-0.96 -0.77,-1.6c0,-0.63 0.28,-1.21 0.77,-1.59l13.22,-10.39c0.01,0.02 0.01,0.04 0.01,0.06l0,7.92l1,0l1,0l2,0c14.03,0 25.85,10.95 26.92,24.92c0.02,0.28 -0.07,0.55 -0.26,0.75z" fill="url(#svg_6)" id="svg_2" transform="matrix(1, 0, 0, 1, 0, 0)"/>
 </g>
</svg>