<svg xmlns="http://www.w3.org/2000/svg" xmlns:xlink="http://www.w3.org/1999/xlink" width="500" zoomAndPan="magnify" viewBox="0 0 375 374.999991" height="500" preserveAspectRatio="xMidYMid meet" version="1.0"><defs><clipPath id="e8e1159b79"><path d="M 78 52 L 257 52 L 257 318 L 78 318 Z M 78 52 " clip-rule="nonzero"/></clipPath><clipPath id="5c52fabcdb"><path d="M 251.863281 46.054688 L 334.570312 237.449219 L 123.210938 328.785156 L 40.503906 137.390625 Z M 251.863281 46.054688 " clip-rule="nonzero"/></clipPath><clipPath id="bafebb8127"><path d="M 251.863281 46.054688 L 334.570312 237.449219 L 123.210938 328.785156 L 40.503906 137.390625 Z M 251.863281 46.054688 " clip-rule="nonzero"/></clipPath></defs><g clip-path="url(#e8e1159b79)"><g clip-path="url(#5c52fabcdb)"><g clip-path="url(#bafebb8127)"><path fill="#face12" d="M 128.347656 311.359375 C 115.367188 295.390625 103.914062 278.394531 93.988281 260.367188 C 88.398438 249.058594 83.386719 237.492188 78.960938 225.675781 C 78.671875 224.964844 78.507812 224.230469 78.46875 223.464844 C 78.433594 222.699219 78.523438 221.949219 78.738281 221.214844 C 78.957031 220.480469 79.292969 219.800781 79.742188 219.179688 C 80.191406 218.5625 80.730469 218.03125 81.359375 217.59375 C 81.988281 217.160156 82.671875 216.839844 83.410156 216.636719 C 84.148438 216.429688 84.902344 216.355469 85.664062 216.410156 C 86.429688 216.460938 87.164062 216.640625 87.867188 216.945312 C 88.570312 217.246094 89.203125 217.660156 89.765625 218.179688 C 93.132812 223.25 95.957031 228.609375 98.230469 234.253906 C 104.601562 249.3125 112.480469 263.539062 121.867188 276.929688 C 120.8125 265.917969 120.40625 254.832031 119.976562 243.785156 C 118.953125 215.628906 120.019531 186.886719 128.742188 159.882812 C 131.457031 152.53125 134.640625 145.386719 138.289062 138.453125 C 141.9375 131.515625 146.023438 124.84375 150.539062 118.441406 C 155.058594 112.039062 159.972656 105.953125 165.285156 100.191406 C 170.597656 94.429688 176.261719 89.035156 182.277344 84.011719 C 191.78125 76.589844 201.953125 70.226562 212.789062 64.929688 C 223.625 59.632812 234.890625 55.515625 246.585938 52.578125 C 247.214844 52.320312 247.867188 52.160156 248.542969 52.09375 C 249.21875 52.027344 249.890625 52.058594 250.558594 52.1875 C 251.222656 52.316406 251.855469 52.535156 252.460938 52.851562 C 253.0625 53.164062 253.605469 53.558594 254.09375 54.03125 C 254.578125 54.503906 254.988281 55.035156 255.320312 55.628906 C 255.652344 56.21875 255.894531 56.847656 256.042969 57.507812 C 256.191406 58.171875 256.246094 58.839844 256.199219 59.519531 C 256.152344 60.195312 256.011719 60.851562 255.773438 61.488281 C 254.191406 65.8125 249.113281 65.945312 245.371094 67.34375 C 235.335938 70.441406 225.601562 74.292969 216.167969 78.90625 C 212.246094 81.054688 208.425781 83.367188 204.699219 85.84375 C 200.972656 88.316406 197.359375 90.941406 193.855469 93.722656 C 190.351562 96.5 186.96875 99.417969 183.710938 102.484375 C 180.453125 105.546875 177.328125 108.742188 174.339844 112.066406 C 171.351562 115.394531 168.507812 118.839844 165.808594 122.402344 C 163.109375 125.96875 160.566406 129.640625 158.175781 133.421875 C 155.785156 137.203125 153.5625 141.074219 151.496094 145.042969 C 149.433594 149.011719 147.542969 153.058594 145.820312 157.183594 C 132.703125 190.890625 134.074219 227.457031 136.164062 264.996094 C 136.539062 273.101562 137.300781 281.183594 137.800781 289.285156 C 138.007812 290.800781 138.0625 292.320312 137.972656 293.847656 C 147.851562 269.449219 154.898438 243.949219 166.753906 220.363281 C 167.085938 219.574219 167.539062 218.859375 168.117188 218.222656 C 168.695312 217.589844 169.359375 217.070312 170.117188 216.664062 C 170.871094 216.253906 171.671875 215.984375 172.519531 215.855469 C 173.367188 215.722656 174.214844 215.734375 175.054688 215.894531 C 175.898438 216.050781 176.691406 216.34375 177.433594 216.773438 C 178.175781 217.203125 178.828125 217.746094 179.382812 218.398438 C 179.941406 219.050781 180.375 219.777344 180.683594 220.578125 C 180.992188 221.378906 181.15625 222.207031 181.179688 223.066406 C 177.15625 236.410156 168.328125 250.980469 164.304688 266.4375 C 159.257812 281.632812 153.429688 296.574219 147.058594 311.261719 C 142.257812 320.425781 133.625 319.628906 128.347656 311.359375 Z M 128.347656 311.359375 " fill-opacity="1" fill-rule="nonzero"/></g></g></g></svg>