<svg xmlns="http://www.w3.org/2000/svg" xmlns:xlink="http://www.w3.org/1999/xlink" width="700" zoomAndPan="magnify" viewBox="0 0 525 525.000007" height="700" preserveAspectRatio="xMidYMid meet" version="1.0"><defs><filter x="0%" y="0%" width="100%" height="100%" id="0292101a9c"><feColorMatrix values="0 0 0 0 1 0 0 0 0 1 0 0 0 0 1 0 0 0 1 0" color-interpolation-filters="sRGB"/></filter><g/><clipPath id="d6783fc2d1"><path d="M 0.5 187 L 524.5 187 L 524.5 351 L 0.5 351 Z M 0.5 187 " clip-rule="nonzero"/></clipPath><clipPath id="4a6e8a70c5"><path d="M 12 257 L 511 257 L 511 351.628906 L 12 351.628906 Z M 12 257 " clip-rule="nonzero"/></clipPath><mask id="cabcff790d"><g filter="url(#0292101a9c)"><rect x="-52.5" width="630" fill="#000000" y="-52.500001" height="630.000008" fill-opacity="0.53"/></g></mask><clipPath id="65d6709e25"><path d="M 1.121094 0.5 L 232.117188 0.5 L 232.117188 26.863281 L 1.121094 26.863281 Z M 1.121094 0.5 " clip-rule="nonzero"/></clipPath><clipPath id="43aefeedf3"><rect x="0" width="233" y="0" height="28"/></clipPath></defs><g clip-path="url(#d6783fc2d1)"><path fill="#2d373f" d="M 509.289062 189.539062 C 352.078125 187.046875 194.863281 187.046875 37.652344 189.539062 C 31.917969 189.664062 26.183594 189.664062 20.445312 189.789062 C 18.703125 189.914062 15.460938 190.414062 11.96875 192.28125 C 7.605469 194.777344 5.359375 198.265625 4.488281 199.515625 C 1.121094 205 0.996094 210.484375 0.875 214.597656 C 0.75 228.0625 1.246094 257.363281 0.875 271.203125 C 0.875 271.203125 0.5 291.523438 2.246094 326.679688 C 2.371094 327.925781 2.492188 330.796875 4.238281 333.789062 C 6.484375 337.777344 10.222656 339.648438 12.839844 341.019531 C 21.695312 345.382812 30.171875 348.746094 35.90625 350.867188 C 28.675781 344.632812 23.191406 339.023438 19.324219 334.785156 C 15.957031 331.167969 12.71875 327.304688 13.714844 323.9375 C 14.214844 322.191406 15.832031 321.070312 16.957031 320.074219 C 19.324219 318.203125 21.816406 317.578125 23.191406 317.332031 C 86.398438 316.082031 138.015625 315.585938 173.421875 315.710938 C 223.414062 315.835938 273.78125 316.457031 325.773438 316.082031 C 319.664062 316.082031 317.417969 315.957031 317.417969 315.957031 C 317.417969 315.957031 318.664062 315.957031 319.039062 315.957031 C 326.644531 315.835938 423.515625 318.328125 439.222656 316.332031 C 440.222656 316.207031 444.210938 315.585938 449.820312 315.335938 C 452.9375 315.085938 453.8125 315.210938 456.679688 314.960938 C 464.90625 314.460938 466.527344 314.214844 467.898438 313.714844 C 469.019531 313.339844 470.515625 312.71875 473.386719 311.46875 C 477.875 309.476562 480.117188 308.601562 482.609375 306.859375 C 485.351562 304.988281 487.472656 302.867188 488.097656 302.246094 C 488.84375 301.496094 489.34375 300.875 489.964844 300.25 C 490.714844 299.253906 491.960938 297.882812 493.332031 296.136719 C 501.3125 285.539062 503.554688 277.433594 509.539062 260.851562 C 514.027344 248.511719 516.644531 242.527344 521.257812 228.0625 C 522.507812 224.074219 524.5 217.714844 524.5 209.238281 C 524.5 203.253906 524.375 195.152344 518.890625 191.285156 C 515.523438 189.167969 511.660156 189.289062 509.289062 189.539062 Z M 509.289062 189.539062 " fill-opacity="1" fill-rule="nonzero"/></g><g clip-path="url(#4a6e8a70c5)"><path fill="#939393" d="M 36.777344 351.242188 C 33.039062 348.996094 30.046875 347.003906 27.800781 345.507812 C 24.0625 343.011719 21.816406 341.269531 19.824219 339.523438 C 15.957031 336.28125 14.835938 334.660156 14.335938 333.664062 C 13.464844 332.292969 12.21875 330.046875 12.34375 327.054688 C 12.34375 326.308594 12.46875 324.6875 13.464844 322.941406 C 14.335938 321.570312 15.335938 320.820312 16.082031 320.199219 C 17.578125 319.074219 19.074219 318.578125 20.320312 318.078125 C 20.320312 318.078125 21.816406 317.578125 23.3125 317.332031 C 36.40625 315.085938 55.105469 315.835938 55.105469 315.835938 C 72.0625 316.582031 79.792969 315.335938 108.339844 315.335938 C 135.894531 315.460938 130.535156 314.960938 170.179688 314.960938 C 221.667969 314.960938 233.015625 315.835938 279.765625 315.460938 C 309.066406 315.210938 302.332031 314.960938 318.664062 314.960938 C 343.226562 314.960938 422.644531 315.835938 442.09375 315.585938 C 442.839844 315.585938 448.824219 315.460938 456.804688 314.585938 C 462.664062 313.964844 465.65625 313.589844 469.144531 312.46875 C 476.253906 310.222656 481.238281 306.609375 483.734375 304.488281 C 483.734375 304.488281 490.089844 299.253906 495.703125 289.652344 C 495.824219 289.402344 496.074219 289.03125 496.074219 289.03125 C 498.195312 285.914062 499.566406 282.296875 499.566406 282.296875 C 501.933594 277.183594 510.539062 257.738281 510.664062 257.859375 C 510.664062 257.859375 510.414062 258.609375 509.539062 260.976562 C 509.042969 262.347656 509.042969 262.472656 508.292969 264.46875 C 507.792969 265.839844 507.671875 266.089844 507.171875 267.710938 C 506.421875 269.707031 505.925781 271.078125 505.800781 271.449219 C 501.933594 282.546875 499.566406 288.90625 495.578125 295.636719 C 493.582031 299.003906 491.710938 301.371094 491.089844 302.246094 C 489.34375 304.488281 487.597656 306.359375 486.476562 307.605469 C 481.363281 312.71875 475.003906 314.835938 470.515625 316.332031 C 463.535156 318.703125 457.675781 319.199219 452.6875 319.699219 C 449.074219 319.949219 447.453125 319.949219 440.71875 320.074219 C 430.746094 320.199219 425.636719 320.570312 421.023438 320.695312 C 401.074219 321.320312 335.496094 320.820312 315.050781 320.695312 C 270.914062 320.445312 276.152344 321.320312 229.398438 320.945312 C 208.828125 320.820312 188.257812 320.695312 167.4375 320.695312 C 154.222656 320.695312 141.007812 320.695312 127.914062 320.695312 C 115.199219 320.695312 102.480469 320.695312 89.890625 320.820312 C 72.3125 320.820312 54.605469 320.820312 37.027344 320.695312 C 36.777344 330.796875 36.777344 341.019531 36.777344 351.242188 Z M 36.777344 351.242188 " fill-opacity="1" fill-rule="nonzero"/></g><g fill="#f4eeee" fill-opacity="1"><g transform="translate(44.77237, 291.869085)"><g><path d="M 60.53125 -58.453125 L 60.53125 0 L 49.4375 0 L 20.296875 -35.484375 L 20.296875 0 L 6.9375 0 L 6.9375 -58.453125 L 18.125 -58.453125 L 47.171875 -22.96875 L 47.171875 -58.453125 Z M 60.53125 -58.453125 "/></g></g></g><g fill="#f4eeee" fill-opacity="1"><g transform="translate(110.567209, 291.869085)"><g><path d="M 6.015625 -44.921875 L 19.03125 -44.921875 L 19.03125 0 L 6.015625 0 Z M 12.53125 -51.1875 C 10.132812 -51.1875 8.179688 -51.878906 6.671875 -53.265625 C 5.171875 -54.660156 4.421875 -56.390625 4.421875 -58.453125 C 4.421875 -60.515625 5.171875 -62.238281 6.671875 -63.625 C 8.179688 -65.019531 10.132812 -65.71875 12.53125 -65.71875 C 14.925781 -65.71875 16.875 -65.046875 18.375 -63.703125 C 19.875 -62.367188 20.625 -60.703125 20.625 -58.703125 C 20.625 -56.523438 19.875 -54.726562 18.375 -53.3125 C 16.875 -51.894531 14.925781 -51.1875 12.53125 -51.1875 Z M 12.53125 -51.1875 "/></g></g></g><g fill="#f4eeee" fill-opacity="1"><g transform="translate(134.02937, 291.869085)"><g><path d="M 27.71875 0.671875 C 22.9375 0.671875 18.632812 -0.316406 14.8125 -2.296875 C 11 -4.273438 8.019531 -7.015625 5.875 -10.515625 C 3.738281 -14.023438 2.671875 -18.007812 2.671875 -22.46875 C 2.671875 -26.914062 3.738281 -30.890625 5.875 -34.390625 C 8.019531 -37.898438 11 -40.644531 14.8125 -42.625 C 18.632812 -44.601562 22.9375 -45.59375 27.71875 -45.59375 C 32.445312 -45.59375 36.578125 -44.601562 40.109375 -42.625 C 43.648438 -40.644531 46.226562 -37.820312 47.84375 -34.15625 L 37.734375 -28.71875 C 35.398438 -32.84375 32.035156 -34.90625 27.640625 -34.90625 C 24.242188 -34.90625 21.429688 -33.789062 19.203125 -31.5625 C 16.972656 -29.332031 15.859375 -26.300781 15.859375 -22.46875 C 15.859375 -18.625 16.972656 -15.585938 19.203125 -13.359375 C 21.429688 -11.128906 24.242188 -10.015625 27.640625 -10.015625 C 32.085938 -10.015625 35.453125 -12.078125 37.734375 -16.203125 L 47.84375 -10.6875 C 46.226562 -7.125 43.648438 -4.335938 40.109375 -2.328125 C 36.578125 -0.328125 32.445312 0.671875 27.71875 0.671875 Z M 27.71875 0.671875 "/></g></g></g><g fill="#f4eeee" fill-opacity="1"><g transform="translate(181.70549, 291.869085)"><g><path d="M 25.296875 -17.625 L 19.03125 -11.4375 L 19.03125 0 L 6.015625 0 L 6.015625 -61.953125 L 19.03125 -61.953125 L 19.03125 -26.890625 L 38.078125 -44.921875 L 53.609375 -44.921875 L 34.90625 -25.890625 L 55.28125 0 L 39.5 0 Z M 25.296875 -17.625 "/></g></g></g><g fill="#f4eeee" fill-opacity="1"><g transform="translate(235.142872, 291.869085)"><g/></g></g><g fill="#f4eeee" fill-opacity="1"><g transform="translate(257.102098, 291.869085)"><g><path d="M 34.90625 1 C 28.945312 1 23.554688 -0.289062 18.734375 -2.875 C 13.921875 -5.46875 10.132812 -9.0625 7.375 -13.65625 C 4.625 -18.25 3.25 -23.4375 3.25 -29.21875 C 3.25 -35.007812 4.625 -40.203125 7.375 -44.796875 C 10.132812 -49.390625 13.921875 -52.976562 18.734375 -55.5625 C 23.554688 -58.15625 28.972656 -59.453125 34.984375 -59.453125 C 40.046875 -59.453125 44.625 -58.5625 48.71875 -56.78125 C 52.8125 -55 56.25 -52.4375 59.03125 -49.09375 L 50.34375 -41.078125 C 46.394531 -45.640625 41.5 -47.921875 35.65625 -47.921875 C 32.039062 -47.921875 28.8125 -47.128906 25.96875 -45.546875 C 23.125 -43.960938 20.910156 -41.75 19.328125 -38.90625 C 17.742188 -36.070312 16.953125 -32.84375 16.953125 -29.21875 C 16.953125 -25.601562 17.742188 -22.375 19.328125 -19.53125 C 20.910156 -16.695312 23.125 -14.484375 25.96875 -12.890625 C 28.8125 -11.304688 32.039062 -10.515625 35.65625 -10.515625 C 41.5 -10.515625 46.394531 -12.828125 50.34375 -17.453125 L 59.03125 -9.4375 C 56.25 -6.039062 52.796875 -3.453125 48.671875 -1.671875 C 44.554688 0.109375 39.96875 1 34.90625 1 Z M 34.90625 1 "/></g></g></g><g fill="#f4eeee" fill-opacity="1"><g transform="translate(316.634712, 291.869085)"><g><path d="M 33.3125 -45.59375 C 38.882812 -45.59375 43.378906 -43.921875 46.796875 -40.578125 C 50.222656 -37.242188 51.9375 -32.289062 51.9375 -25.71875 L 51.9375 0 L 38.90625 0 L 38.90625 -23.71875 C 38.90625 -27.28125 38.125 -29.9375 36.5625 -31.6875 C 35.007812 -33.4375 32.757812 -34.3125 29.8125 -34.3125 C 26.53125 -34.3125 23.910156 -33.296875 21.953125 -31.265625 C 20.003906 -29.234375 19.03125 -26.21875 19.03125 -22.21875 L 19.03125 0 L 6.015625 0 L 6.015625 -61.953125 L 19.03125 -61.953125 L 19.03125 -40.25 C 20.757812 -41.96875 22.847656 -43.285156 25.296875 -44.203125 C 27.742188 -45.128906 30.414062 -45.59375 33.3125 -45.59375 Z M 33.3125 -45.59375 "/></g></g></g><g fill="#f4eeee" fill-opacity="1"><g transform="translate(372.660473, 291.869085)"><g><path d="M 24.125 -45.59375 C 31.082031 -45.59375 36.425781 -43.9375 40.15625 -40.625 C 43.894531 -37.3125 45.765625 -32.316406 45.765625 -25.640625 L 45.765625 0 L 33.5625 0 L 33.5625 -5.59375 C 31.113281 -1.414062 26.550781 0.671875 19.875 0.671875 C 16.425781 0.671875 13.429688 0.0859375 10.890625 -1.078125 C 8.359375 -2.253906 6.425781 -3.867188 5.09375 -5.921875 C 3.757812 -7.984375 3.09375 -10.320312 3.09375 -12.9375 C 3.09375 -17.113281 4.664062 -20.398438 7.8125 -22.796875 C 10.957031 -25.191406 15.8125 -26.390625 22.375 -26.390625 L 32.734375 -26.390625 C 32.734375 -29.222656 31.867188 -31.40625 30.140625 -32.9375 C 28.421875 -34.46875 25.832031 -35.234375 22.375 -35.234375 C 19.976562 -35.234375 17.625 -34.859375 15.3125 -34.109375 C 13.007812 -33.359375 11.050781 -32.34375 9.4375 -31.0625 L 4.765625 -40.15625 C 7.210938 -41.882812 10.144531 -43.222656 13.5625 -44.171875 C 16.988281 -45.117188 20.507812 -45.59375 24.125 -45.59375 Z M 23.125 -8.09375 C 25.351562 -8.09375 27.328125 -8.609375 29.046875 -9.640625 C 30.773438 -10.671875 32.003906 -12.1875 32.734375 -14.1875 L 32.734375 -18.78125 L 23.796875 -18.78125 C 18.453125 -18.78125 15.78125 -17.03125 15.78125 -13.53125 C 15.78125 -11.851562 16.429688 -10.523438 17.734375 -9.546875 C 19.046875 -8.578125 20.84375 -8.09375 23.125 -8.09375 Z M 23.125 -8.09375 "/></g></g></g><g fill="#f4eeee" fill-opacity="1"><g transform="translate(422.507496, 291.869085)"><g><path d="M 33.3125 -45.59375 C 38.882812 -45.59375 43.378906 -43.921875 46.796875 -40.578125 C 50.222656 -37.242188 51.9375 -32.289062 51.9375 -25.71875 L 51.9375 0 L 38.90625 0 L 38.90625 -23.71875 C 38.90625 -27.28125 38.125 -29.9375 36.5625 -31.6875 C 35.007812 -33.4375 32.757812 -34.3125 29.8125 -34.3125 C 26.53125 -34.3125 23.910156 -33.296875 21.953125 -31.265625 C 20.003906 -29.234375 19.03125 -26.21875 19.03125 -22.21875 L 19.03125 0 L 6.015625 0 L 6.015625 -44.921875 L 18.453125 -44.921875 L 18.453125 -39.65625 C 20.179688 -41.550781 22.320312 -43.015625 24.875 -44.046875 C 27.4375 -45.078125 30.25 -45.59375 33.3125 -45.59375 Z M 33.3125 -45.59375 "/></g></g></g><g mask="url(#cabcff790d)"><g transform="matrix(1, 0, 0, 1, 137, 361)"><g clip-path="url(#43aefeedf3)"><g clip-path="url(#65d6709e25)"><path fill="#0cc0df" d="M 1.121094 0.5 L 232.09375 0.5 L 232.09375 26.863281 L 1.121094 26.863281 Z M 1.121094 0.5 " fill-opacity="1" fill-rule="nonzero"/></g></g></g></g><g fill="#004aad" fill-opacity="1"><g transform="translate(152.549642, 382.367531)"><g><path d="M 21.15625 -13.78125 L 16.515625 0 L 14.984375 0 L 10.953125 -11.75 L 6.890625 0 L 5.375 0 L 0.734375 -13.78125 L 2.21875 -13.78125 L 6.203125 -1.921875 L 10.3125 -13.78125 L 11.671875 -13.78125 L 15.734375 -1.875 L 19.765625 -13.78125 Z M 21.15625 -13.78125 "/></g></g></g><g fill="#004aad" fill-opacity="1"><g transform="translate(176.170622, 382.367531)"><g><path d="M 11.984375 -1.265625 L 11.984375 0 L 2.25 0 L 2.25 -13.78125 L 11.6875 -13.78125 L 11.6875 -12.515625 L 3.703125 -12.515625 L 3.703125 -7.625 L 10.828125 -7.625 L 10.828125 -6.375 L 3.703125 -6.375 L 3.703125 -1.265625 Z M 11.984375 -1.265625 "/></g></g></g><g fill="#004aad" fill-opacity="1"><g transform="translate(191.099005, 382.367531)"><g><path d="M 10.921875 -7.109375 C 11.828125 -6.910156 12.523438 -6.519531 13.015625 -5.9375 C 13.515625 -5.351562 13.765625 -4.601562 13.765625 -3.6875 C 13.765625 -2.5 13.328125 -1.585938 12.453125 -0.953125 C 11.578125 -0.316406 10.285156 0 8.578125 0 L 2.25 0 L 2.25 -13.78125 L 8.1875 -13.78125 C 9.726562 -13.78125 10.921875 -13.472656 11.765625 -12.859375 C 12.609375 -12.242188 13.03125 -11.367188 13.03125 -10.234375 C 13.03125 -9.472656 12.84375 -8.828125 12.46875 -8.296875 C 12.09375 -7.765625 11.578125 -7.367188 10.921875 -7.109375 Z M 3.703125 -12.578125 L 3.703125 -7.578125 L 8.09375 -7.578125 C 9.207031 -7.578125 10.066406 -7.789062 10.671875 -8.21875 C 11.273438 -8.644531 11.578125 -9.265625 11.578125 -10.078125 C 11.578125 -10.890625 11.273438 -11.507812 10.671875 -11.9375 C 10.066406 -12.363281 9.207031 -12.578125 8.09375 -12.578125 Z M 8.5625 -1.203125 C 9.800781 -1.203125 10.734375 -1.410156 11.359375 -1.828125 C 11.984375 -2.242188 12.296875 -2.898438 12.296875 -3.796875 C 12.296875 -5.515625 11.050781 -6.375 8.5625 -6.375 L 3.703125 -6.375 L 3.703125 -1.203125 Z M 8.5625 -1.203125 "/></g></g></g><g fill="#004aad" fill-opacity="1"><g transform="translate(207.699033, 382.367531)"><g/></g></g><g fill="#004aad" fill-opacity="1"><g transform="translate(214.623149, 382.367531)"><g><path d="M 2.25 -13.78125 L 7.859375 -13.78125 C 9.316406 -13.78125 10.601562 -13.488281 11.71875 -12.90625 C 12.832031 -12.320312 13.695312 -11.507812 14.3125 -10.46875 C 14.925781 -9.425781 15.234375 -8.234375 15.234375 -6.890625 C 15.234375 -5.546875 14.925781 -4.351562 14.3125 -3.3125 C 13.695312 -2.269531 12.832031 -1.457031 11.71875 -0.875 C 10.601562 -0.289062 9.316406 0 7.859375 0 L 2.25 0 Z M 7.78125 -1.265625 C 8.988281 -1.265625 10.039062 -1.503906 10.9375 -1.984375 C 11.84375 -2.460938 12.546875 -3.125 13.046875 -3.96875 C 13.546875 -4.8125 13.796875 -5.785156 13.796875 -6.890625 C 13.796875 -7.992188 13.546875 -8.96875 13.046875 -9.8125 C 12.546875 -10.65625 11.84375 -11.316406 10.9375 -11.796875 C 10.039062 -12.273438 8.988281 -12.515625 7.78125 -12.515625 L 3.703125 -12.515625 L 3.703125 -1.265625 Z M 7.78125 -1.265625 "/></g></g></g><g fill="#004aad" fill-opacity="1"><g transform="translate(232.639176, 382.367531)"><g><path d="M 11.984375 -1.265625 L 11.984375 0 L 2.25 0 L 2.25 -13.78125 L 11.6875 -13.78125 L 11.6875 -12.515625 L 3.703125 -12.515625 L 3.703125 -7.625 L 10.828125 -7.625 L 10.828125 -6.375 L 3.703125 -6.375 L 3.703125 -1.265625 Z M 11.984375 -1.265625 "/></g></g></g><g fill="#004aad" fill-opacity="1"><g transform="translate(247.567561, 382.367531)"><g><path d="M 13.703125 -13.78125 L 7.59375 0 L 6.15625 0 L 0.0625 -13.78125 L 1.640625 -13.78125 L 6.90625 -1.8125 L 12.21875 -13.78125 Z M 13.703125 -13.78125 "/></g></g></g><g fill="#004aad" fill-opacity="1"><g transform="translate(263.066274, 382.367531)"><g><path d="M 11.984375 -1.265625 L 11.984375 0 L 2.25 0 L 2.25 -13.78125 L 11.6875 -13.78125 L 11.6875 -12.515625 L 3.703125 -12.515625 L 3.703125 -7.625 L 10.828125 -7.625 L 10.828125 -6.375 L 3.703125 -6.375 L 3.703125 -1.265625 Z M 11.984375 -1.265625 "/></g></g></g><g fill="#004aad" fill-opacity="1"><g transform="translate(277.994659, 382.367531)"><g><path d="M 2.25 -13.78125 L 3.703125 -13.78125 L 3.703125 -1.265625 L 11.421875 -1.265625 L 11.421875 0 L 2.25 0 Z M 2.25 -13.78125 "/></g></g></g><g fill="#004aad" fill-opacity="1"><g transform="translate(291.349727, 382.367531)"><g><path d="M 8.265625 0.125 C 6.898438 0.125 5.660156 -0.179688 4.546875 -0.796875 C 3.441406 -1.410156 2.578125 -2.25 1.953125 -3.3125 C 1.335938 -4.375 1.03125 -5.566406 1.03125 -6.890625 C 1.03125 -8.210938 1.335938 -9.40625 1.953125 -10.46875 C 2.578125 -11.53125 3.441406 -12.367188 4.546875 -12.984375 C 5.660156 -13.597656 6.898438 -13.90625 8.265625 -13.90625 C 9.628906 -13.90625 10.859375 -13.601562 11.953125 -13 C 13.054688 -12.394531 13.921875 -11.554688 14.546875 -10.484375 C 15.179688 -9.410156 15.5 -8.210938 15.5 -6.890625 C 15.5 -5.566406 15.179688 -4.367188 14.546875 -3.296875 C 13.921875 -2.222656 13.054688 -1.382812 11.953125 -0.78125 C 10.859375 -0.175781 9.628906 0.125 8.265625 0.125 Z M 8.265625 -1.1875 C 9.359375 -1.1875 10.34375 -1.429688 11.21875 -1.921875 C 12.101562 -2.410156 12.789062 -3.09375 13.28125 -3.96875 C 13.78125 -4.84375 14.03125 -5.816406 14.03125 -6.890625 C 14.03125 -7.960938 13.78125 -8.9375 13.28125 -9.8125 C 12.789062 -10.6875 12.101562 -11.367188 11.21875 -11.859375 C 10.34375 -12.347656 9.359375 -12.59375 8.265625 -12.59375 C 7.179688 -12.59375 6.195312 -12.347656 5.3125 -11.859375 C 4.425781 -11.367188 3.726562 -10.6875 3.21875 -9.8125 C 2.707031 -8.9375 2.453125 -7.960938 2.453125 -6.890625 C 2.453125 -5.816406 2.707031 -4.84375 3.21875 -3.96875 C 3.726562 -3.09375 4.425781 -2.410156 5.3125 -1.921875 C 6.195312 -1.429688 7.179688 -1.1875 8.265625 -1.1875 Z M 8.265625 -1.1875 "/></g></g></g><g fill="#004aad" fill-opacity="1"><g transform="translate(309.621414, 382.367531)"><g><path d="M 7.40625 -13.78125 C 9.164062 -13.78125 10.539062 -13.359375 11.53125 -12.515625 C 12.53125 -11.679688 13.03125 -10.53125 13.03125 -9.0625 C 13.03125 -7.582031 12.53125 -6.425781 11.53125 -5.59375 C 10.539062 -4.757812 9.164062 -4.34375 7.40625 -4.34375 L 3.703125 -4.34375 L 3.703125 0 L 2.25 0 L 2.25 -13.78125 Z M 7.359375 -5.625 C 8.722656 -5.625 9.765625 -5.921875 10.484375 -6.515625 C 11.210938 -7.117188 11.578125 -7.96875 11.578125 -9.0625 C 11.578125 -10.175781 11.210938 -11.03125 10.484375 -11.625 C 9.765625 -12.21875 8.722656 -12.515625 7.359375 -12.515625 L 3.703125 -12.515625 L 3.703125 -5.625 Z M 7.359375 -5.625 "/></g></g></g><g fill="#004aad" fill-opacity="1"><g transform="translate(325.513457, 382.367531)"><g><path d="M 11.984375 -1.265625 L 11.984375 0 L 2.25 0 L 2.25 -13.78125 L 11.6875 -13.78125 L 11.6875 -12.515625 L 3.703125 -12.515625 L 3.703125 -7.625 L 10.828125 -7.625 L 10.828125 -6.375 L 3.703125 -6.375 L 3.703125 -1.265625 Z M 11.984375 -1.265625 "/></g></g></g><g fill="#004aad" fill-opacity="1"><g transform="translate(340.441834, 382.367531)"><g><path d="M 11.65625 0 L 8.5 -4.421875 C 8.144531 -4.390625 7.78125 -4.375 7.40625 -4.375 L 3.703125 -4.375 L 3.703125 0 L 2.25 0 L 2.25 -13.78125 L 7.40625 -13.78125 C 9.164062 -13.78125 10.539062 -13.359375 11.53125 -12.515625 C 12.53125 -11.679688 13.03125 -10.53125 13.03125 -9.0625 C 13.03125 -7.976562 12.757812 -7.066406 12.21875 -6.328125 C 11.675781 -5.585938 10.898438 -5.050781 9.890625 -4.71875 L 13.25 0 Z M 7.359375 -5.609375 C 8.722656 -5.609375 9.765625 -5.910156 10.484375 -6.515625 C 11.210938 -7.117188 11.578125 -7.96875 11.578125 -9.0625 C 11.578125 -10.175781 11.210938 -11.03125 10.484375 -11.625 C 9.765625 -12.21875 8.722656 -12.515625 7.359375 -12.515625 L 3.703125 -12.515625 L 3.703125 -5.609375 Z M 7.359375 -5.609375 "/></g></g></g></svg>