<svg xmlns="http://www.w3.org/2000/svg" xmlns:xlink="http://www.w3.org/1999/xlink" width="500" zoomAndPan="magnify" viewBox="0 0 375 374.999991" height="500" preserveAspectRatio="xMidYMid meet" version="1.0"><defs><filter x="0%" y="0%" width="100%" height="100%" id="4ddf914fe9"><feColorMatrix values="0 0 0 0 1 0 0 0 0 1 0 0 0 0 1 0 0 0 1 0" color-interpolation-filters="sRGB"/></filter><g/><mask id="cc8d21f55a"><g filter="url(#4ddf914fe9)"><rect x="-37.5" width="450" fill="#000000" y="-37.499999" height="449.999989" fill-opacity="0.32"/></g></mask><clipPath id="e04a037776"><path d="M 1.144531 0.5 L 150.90625 0.5 L 150.90625 19.367188 L 1.144531 19.367188 Z M 1.144531 0.5 " clip-rule="nonzero"/></clipPath><clipPath id="0b8e2fa09a"><rect x="0" width="151" y="0" height="20"/></clipPath></defs><g fill="#171717" fill-opacity="1"><g transform="translate(51.172873, 200.39383)"><g><path d="M 31.796875 -42.375 L 40.8125 -42.375 L 40.8125 0 L 32.21875 0 L 11.828125 -27.671875 L 11.828125 0 L 2.8125 0 L 2.8125 -42.375 L 11.296875 -42.375 L 31.796875 -14.515625 Z M 31.796875 -42.375 "/></g></g></g><g fill="#171717" fill-opacity="1"><g transform="translate(93.603337, 200.39383)"><g><path d="M 11.65625 0 L 3.40625 0 L 3.40625 -29.640625 L 11.65625 -29.640625 Z M 7.53125 -33.703125 C 6.257812 -33.703125 5.179688 -34.140625 4.296875 -35.015625 C 3.421875 -35.898438 2.984375 -36.976562 2.984375 -38.25 C 2.984375 -39.519531 3.421875 -40.601562 4.296875 -41.5 C 5.179688 -42.40625 6.257812 -42.859375 7.53125 -42.859375 C 8.800781 -42.859375 9.875 -42.40625 10.75 -41.5 C 11.632812 -40.601562 12.078125 -39.519531 12.078125 -38.25 C 12.078125 -36.976562 11.632812 -35.898438 10.75 -35.015625 C 9.875 -34.140625 8.800781 -33.703125 7.53125 -33.703125 Z M 7.53125 -33.703125 "/></g></g></g><g fill="#171717" fill-opacity="1"><g transform="translate(107.527641, 200.39383)"><g><path d="M 17.265625 -23.125 C 16.273438 -23.125 15.335938 -22.894531 14.453125 -22.4375 C 13.578125 -21.976562 12.8125 -21.359375 12.15625 -20.578125 C 11.5 -19.804688 10.984375 -18.898438 10.609375 -17.859375 C 10.234375 -16.828125 10.046875 -15.710938 10.046875 -14.515625 C 10.046875 -13.328125 10.234375 -12.242188 10.609375 -11.265625 C 10.984375 -10.285156 11.5 -9.445312 12.15625 -8.75 C 12.8125 -8.050781 13.578125 -7.503906 14.453125 -7.109375 C 15.335938 -6.710938 16.273438 -6.515625 17.265625 -6.515625 C 18.503906 -6.515625 19.710938 -6.800781 20.890625 -7.375 C 22.066406 -7.957031 23.070312 -8.765625 23.90625 -9.796875 L 28.984375 -4.78125 C 27.585938 -3.101562 25.875 -1.765625 23.84375 -0.765625 C 21.8125 0.222656 19.617188 0.71875 17.265625 0.71875 C 15.117188 0.71875 13.109375 0.3125 11.234375 -0.5 C 9.359375 -1.320312 7.722656 -2.4375 6.328125 -3.84375 C 4.941406 -5.257812 3.835938 -6.914062 3.015625 -8.8125 C 2.203125 -10.707031 1.796875 -12.726562 1.796875 -14.875 C 1.796875 -17.03125 2.203125 -19.050781 3.015625 -20.9375 C 3.835938 -22.832031 4.941406 -24.488281 6.328125 -25.90625 C 7.722656 -27.320312 9.359375 -28.4375 11.234375 -29.25 C 13.109375 -30.070312 15.117188 -30.484375 17.265625 -30.484375 C 19.703125 -30.484375 21.957031 -29.960938 24.03125 -28.921875 C 26.101562 -27.890625 27.851562 -26.476562 29.28125 -24.6875 L 23.546875 -20.265625 C 22.390625 -21.335938 21.34375 -22.082031 20.40625 -22.5 C 19.46875 -22.914062 18.421875 -23.125 17.265625 -23.125 Z M 17.265625 -23.125 "/></g></g></g><g fill="#171717" fill-opacity="1"><g transform="translate(137.109421, 200.39383)"><g><path d="M 19.125 -17.328125 L 31.609375 0 L 21.75 0 L 13.921875 -11.828125 L 11 -8.671875 L 11 0 L 2.75 0 L 2.75 -43.625 L 11 -43.625 L 11 -19.421875 L 20.625 -29.640625 L 30.65625 -29.640625 Z M 19.125 -17.328125 "/></g></g></g><g fill="#171717" fill-opacity="1"><g transform="translate(167.946187, 200.39383)"><g/></g></g><g fill="#171717" fill-opacity="1"><g transform="translate(183.185237, 200.39383)"><g><path d="M 22.765625 -8.25 C 24.679688 -8.25 26.554688 -8.6875 28.390625 -9.5625 C 30.222656 -10.4375 32.078125 -11.910156 33.953125 -13.984375 L 39.796875 -8.421875 C 37.453125 -5.398438 34.773438 -3.109375 31.765625 -1.546875 C 28.753906 0.00390625 25.65625 0.78125 22.46875 0.78125 C 19.601562 0.78125 16.914062 0.191406 14.40625 -0.984375 C 11.894531 -2.160156 9.710938 -3.742188 7.859375 -5.734375 C 6.003906 -7.722656 4.546875 -10.039062 3.484375 -12.6875 C 2.429688 -15.34375 1.90625 -18.164062 1.90625 -21.15625 C 1.90625 -24.144531 2.453125 -26.953125 3.546875 -29.578125 C 4.648438 -32.210938 6.132812 -34.523438 8 -36.515625 C 9.875 -38.503906 12.085938 -40.078125 14.640625 -41.234375 C 17.191406 -42.390625 19.898438 -42.96875 22.765625 -42.96875 C 25.441406 -42.96875 27.984375 -42.46875 30.390625 -41.46875 C 32.796875 -40.476562 35.15625 -38.828125 37.46875 -36.515625 L 32.21875 -30.125 C 30.539062 -31.675781 28.953125 -32.71875 27.453125 -33.25 C 25.960938 -33.789062 24.398438 -34.0625 22.765625 -34.0625 C 21.128906 -34.0625 19.582031 -33.722656 18.125 -33.046875 C 16.675781 -32.367188 15.414062 -31.453125 14.34375 -30.296875 C 13.269531 -29.140625 12.421875 -27.773438 11.796875 -26.203125 C 11.179688 -24.628906 10.875 -22.945312 10.875 -21.15625 C 10.875 -19.363281 11.179688 -17.691406 11.796875 -16.140625 C 12.421875 -14.585938 13.269531 -13.222656 14.34375 -12.046875 C 15.414062 -10.867188 16.675781 -9.941406 18.125 -9.265625 C 19.582031 -8.585938 21.128906 -8.25 22.765625 -8.25 Z M 22.765625 -8.25 "/></g></g></g><g fill="#171717" fill-opacity="1"><g transform="translate(223.524058, 200.39383)"><g><path d="M 19.1875 -30.484375 C 21.132812 -30.484375 22.953125 -30.070312 24.640625 -29.25 C 26.335938 -28.4375 27.804688 -27.320312 29.046875 -25.90625 C 30.285156 -24.488281 31.25 -22.832031 31.9375 -20.9375 C 32.632812 -19.050781 32.984375 -17.03125 32.984375 -14.875 L 32.984375 0 L 24.921875 0 L 24.921875 -5.4375 C 24.921875 -6.945312 24.929688 -8.507812 24.953125 -10.125 C 24.972656 -11.738281 24.984375 -13.125 24.984375 -14.28125 C 24.984375 -15.394531 24.800781 -16.488281 24.4375 -17.5625 C 24.082031 -18.644531 23.585938 -19.59375 22.953125 -20.40625 C 22.316406 -21.226562 21.566406 -21.882812 20.703125 -22.375 C 19.847656 -22.875 18.941406 -23.125 17.984375 -23.125 C 17.066406 -23.125 16.191406 -22.953125 15.359375 -22.609375 C 14.523438 -22.273438 13.785156 -21.78125 13.140625 -21.125 C 12.503906 -20.46875 12 -19.640625 11.625 -18.640625 C 11.25 -17.648438 11.0625 -16.476562 11.0625 -15.125 L 11.0625 0 L 2.75 0 L 2.75 -43.625 L 11.0625 -43.625 L 11.0625 -27.375 C 12.09375 -28.363281 13.273438 -29.128906 14.609375 -29.671875 C 15.941406 -30.210938 17.46875 -30.484375 19.1875 -30.484375 Z M 19.1875 -30.484375 "/></g></g></g><g fill="#171717" fill-opacity="1"><g transform="translate(256.33296, 200.39383)"><g><path d="M 33.703125 -29.640625 L 33.703125 0 L 26.59375 0 L 25.765625 -3.171875 C 24.609375 -1.617188 23.222656 -0.582031 21.609375 -0.0625 C 19.992188 0.457031 18.3125 0.71875 16.5625 0.71875 C 14.445312 0.71875 12.5 0.3125 10.71875 -0.5 C 8.945312 -1.320312 7.40625 -2.4375 6.09375 -3.84375 C 4.78125 -5.257812 3.753906 -6.914062 3.015625 -8.8125 C 2.273438 -10.707031 1.90625 -12.726562 1.90625 -14.875 C 1.90625 -17.03125 2.273438 -19.050781 3.015625 -20.9375 C 3.753906 -22.832031 4.78125 -24.488281 6.09375 -25.90625 C 7.40625 -27.320312 8.945312 -28.4375 10.71875 -29.25 C 12.5 -30.070312 14.445312 -30.484375 16.5625 -30.484375 C 18.46875 -30.484375 20.21875 -30.179688 21.8125 -29.578125 C 23.40625 -28.984375 24.722656 -28.03125 25.765625 -26.71875 L 26.59375 -29.640625 Z M 25.453125 -14.765625 C 25.453125 -16.316406 25.242188 -17.617188 24.828125 -18.671875 C 24.410156 -19.734375 23.851562 -20.59375 23.15625 -21.25 C 22.457031 -21.90625 21.640625 -22.378906 20.703125 -22.671875 C 19.765625 -22.972656 18.757812 -23.125 17.6875 -23.125 C 16.613281 -23.125 15.609375 -22.90625 14.671875 -22.46875 C 13.734375 -22.03125 12.90625 -21.441406 12.1875 -20.703125 C 11.46875 -19.972656 10.910156 -19.097656 10.515625 -18.078125 C 10.117188 -17.066406 9.921875 -16 9.921875 -14.875 C 9.921875 -13.71875 10.117188 -12.640625 10.515625 -11.640625 C 10.910156 -10.648438 11.46875 -9.785156 12.1875 -9.046875 C 12.90625 -8.316406 13.734375 -7.734375 14.671875 -7.296875 C 15.609375 -6.859375 16.613281 -6.640625 17.6875 -6.640625 C 19.84375 -6.640625 21.664062 -7.304688 23.15625 -8.640625 C 24.65625 -9.972656 25.421875 -12.015625 25.453125 -14.765625 Z M 25.453125 -14.765625 "/></g></g></g><g fill="#171717" fill-opacity="1"><g transform="translate(291.472536, 200.39383)"><g><path d="M 18.109375 -29.640625 C 19.222656 -29.640625 20.457031 -29.476562 21.8125 -29.15625 C 23.164062 -28.84375 24.441406 -28.25 25.640625 -27.375 C 26.835938 -26.5 27.84375 -25.28125 28.65625 -23.71875 C 29.46875 -22.164062 29.875 -20.15625 29.875 -17.6875 L 29.875 0 L 21.578125 0 L 21.578125 -17.390625 C 21.578125 -18.304688 21.425781 -19.082031 21.125 -19.71875 C 20.820312 -20.351562 20.421875 -20.859375 19.921875 -21.234375 C 19.429688 -21.617188 18.863281 -21.898438 18.21875 -22.078125 C 17.582031 -22.265625 16.945312 -22.359375 16.3125 -22.359375 C 15.789062 -22.359375 15.222656 -22.265625 14.609375 -22.078125 C 13.992188 -21.898438 13.414062 -21.613281 12.875 -21.21875 C 12.34375 -20.820312 11.894531 -20.300781 11.53125 -19.65625 C 11.175781 -19.019531 11 -18.265625 11 -17.390625 L 11 0 L 2.75 0 L 2.75 -29.640625 L 9.796875 -29.640625 L 11 -27.375 C 11.957031 -28.050781 13.03125 -28.597656 14.21875 -29.015625 C 15.414062 -29.429688 16.710938 -29.640625 18.109375 -29.640625 Z M 18.109375 -29.640625 "/></g></g></g><g mask="url(#cc8d21f55a)"><g transform="matrix(1, 0, 0, 1, 180, 187)"><g clip-path="url(#0b8e2fa09a)"><g clip-path="url(#e04a037776)"><path fill="#ff3131" d="M 1.144531 0.5 L 150.90625 0.5 L 150.90625 19.367188 L 1.144531 19.367188 Z M 1.144531 0.5 " fill-opacity="1" fill-rule="nonzero"/></g></g></g></g><g fill="#004aad" fill-opacity="1"><g transform="translate(117.600319, 273.220968)"><g><path d="M 11.59375 -9.984375 L 13.25 -9.984375 L 10.25 0 L 8.8125 0 L 6.953125 -6.203125 L 6.71875 -7.328125 L 6.46875 -6.15625 L 4.625 0 L 3.171875 0 L 0.171875 -9.984375 L 1.78125 -9.984375 L 3.84375 -2.375 L 6.171875 -9.984375 L 7.28125 -9.984375 L 9.578125 -2.453125 Z M 11.59375 -9.984375 "/></g></g></g><g fill="#004aad" fill-opacity="1"><g transform="translate(132.346717, 273.220968)"><g><path d="M 6.890625 -9.984375 L 6.890625 -8.65625 L 2.25 -8.65625 L 2.25 -5.9375 L 6.375 -5.9375 L 6.375 -4.578125 L 2.25 -4.578125 L 2.25 -1.359375 L 6.890625 -1.359375 L 6.890625 0 L 0.78125 0 L 0.78125 -9.984375 Z M 6.890625 -9.984375 "/></g></g></g><g fill="#004aad" fill-opacity="1"><g transform="translate(141.346736, 273.220968)"><g><path d="M 7.859375 -2.78125 C 7.859375 -2.394531 7.785156 -2.035156 7.640625 -1.703125 C 7.492188 -1.367188 7.289062 -1.070312 7.03125 -0.8125 C 6.78125 -0.5625 6.484375 -0.363281 6.140625 -0.21875 C 5.796875 -0.0703125 5.429688 0 5.046875 0 L 0.78125 0 L 0.78125 -9.984375 L 4.6875 -9.984375 C 5.019531 -9.984375 5.335938 -9.914062 5.640625 -9.78125 C 5.941406 -9.65625 6.203125 -9.476562 6.421875 -9.25 C 6.648438 -9.019531 6.832031 -8.753906 6.96875 -8.453125 C 7.101562 -8.148438 7.171875 -7.820312 7.171875 -7.46875 C 7.171875 -7.039062 7.097656 -6.648438 6.953125 -6.296875 C 6.816406 -5.941406 6.585938 -5.644531 6.265625 -5.40625 C 6.796875 -5.207031 7.191406 -4.867188 7.453125 -4.390625 C 7.722656 -3.921875 7.859375 -3.382812 7.859375 -2.78125 Z M 2.25 -5.9375 C 2.625 -5.925781 2.972656 -5.921875 3.296875 -5.921875 L 4.703125 -5.921875 C 5.054688 -5.921875 5.351562 -6.054688 5.59375 -6.328125 C 5.84375 -6.597656 5.96875 -6.921875 5.96875 -7.296875 C 5.96875 -7.679688 5.84375 -8.003906 5.59375 -8.265625 C 5.351562 -8.523438 5.054688 -8.65625 4.703125 -8.65625 L 2.25 -8.65625 Z M 2.25 -1.359375 C 2.3125 -1.347656 2.457031 -1.34375 2.6875 -1.34375 L 5.046875 -1.34375 C 5.242188 -1.34375 5.429688 -1.382812 5.609375 -1.46875 C 5.785156 -1.5625 5.9375 -1.679688 6.0625 -1.828125 C 6.195312 -1.972656 6.300781 -2.140625 6.375 -2.328125 C 6.445312 -2.523438 6.484375 -2.738281 6.484375 -2.96875 C 6.484375 -3.195312 6.445312 -3.40625 6.375 -3.59375 C 6.300781 -3.789062 6.195312 -3.960938 6.0625 -4.109375 C 5.9375 -4.253906 5.785156 -4.367188 5.609375 -4.453125 C 5.429688 -4.535156 5.242188 -4.578125 5.046875 -4.578125 L 2.25 -4.578125 Z M 2.25 -1.359375 "/></g></g></g><g fill="#004aad" fill-opacity="1"><g transform="translate(151.065048, 273.220968)"><g/></g></g><g fill="#004aad" fill-opacity="1"><g transform="translate(156.008801, 273.220968)"><g><path d="M 0.84375 0 L 0.84375 -9.984375 L 4.390625 -9.984375 C 5.109375 -9.984375 5.742188 -9.847656 6.296875 -9.578125 C 6.859375 -9.316406 7.320312 -8.960938 7.6875 -8.515625 C 8.0625 -8.066406 8.34375 -7.535156 8.53125 -6.921875 C 8.726562 -6.316406 8.828125 -5.671875 8.828125 -4.984375 C 8.828125 -4.285156 8.722656 -3.632812 8.515625 -3.03125 C 8.316406 -2.425781 8.039062 -1.898438 7.6875 -1.453125 C 7.332031 -1.003906 6.910156 -0.648438 6.421875 -0.390625 C 5.929688 -0.128906 5.40625 0 4.84375 0 Z M 4.34375 -1.359375 C 4.875 -1.359375 5.328125 -1.457031 5.703125 -1.65625 C 6.078125 -1.851562 6.382812 -2.113281 6.625 -2.4375 C 6.875 -2.769531 7.050781 -3.15625 7.15625 -3.59375 C 7.269531 -4.039062 7.328125 -4.503906 7.328125 -4.984375 C 7.328125 -5.460938 7.269531 -5.925781 7.15625 -6.375 C 7.050781 -6.820312 6.878906 -7.210938 6.640625 -7.546875 C 6.398438 -7.878906 6.085938 -8.144531 5.703125 -8.34375 C 5.328125 -8.550781 4.875 -8.65625 4.34375 -8.65625 L 2.328125 -8.65625 L 2.328125 -1.359375 Z M 4.34375 -1.359375 "/></g></g></g><g fill="#004aad" fill-opacity="1"><g transform="translate(166.82569, 273.220968)"><g><path d="M 6.890625 -9.984375 L 6.890625 -8.65625 L 2.25 -8.65625 L 2.25 -5.9375 L 6.375 -5.9375 L 6.375 -4.578125 L 2.25 -4.578125 L 2.25 -1.359375 L 6.890625 -1.359375 L 6.890625 0 L 0.78125 0 L 0.78125 -9.984375 Z M 6.890625 -9.984375 "/></g></g></g><g fill="#004aad" fill-opacity="1"><g transform="translate(175.82571, 273.220968)"><g><path d="M 4.34375 0 L 0.203125 -9.984375 L 1.78125 -9.984375 L 5.15625 -1.890625 L 8.515625 -9.984375 L 10.109375 -9.984375 L 5.96875 0 Z M 4.34375 0 "/></g></g></g><g fill="#004aad" fill-opacity="1"><g transform="translate(187.403152, 273.220968)"><g><path d="M 6.890625 -9.984375 L 6.890625 -8.65625 L 2.25 -8.65625 L 2.25 -5.9375 L 6.375 -5.9375 L 6.375 -4.578125 L 2.25 -4.578125 L 2.25 -1.359375 L 6.890625 -1.359375 L 6.890625 0 L 0.78125 0 L 0.78125 -9.984375 Z M 6.890625 -9.984375 "/></g></g></g><g fill="#004aad" fill-opacity="1"><g transform="translate(196.403172, 273.220968)"><g><path d="M 0.828125 0 L 0.828125 -9.984375 L 2.3125 -9.984375 L 2.3125 -1.359375 L 6.921875 -1.359375 L 6.921875 0 Z M 0.828125 0 "/></g></g></g><g fill="#004aad" fill-opacity="1"><g transform="translate(204.896155, 273.220968)"><g><path d="M 5.421875 -10.125 C 6.097656 -10.125 6.734375 -9.988281 7.328125 -9.71875 C 7.929688 -9.445312 8.457031 -9.078125 8.90625 -8.609375 C 9.351562 -8.140625 9.707031 -7.59375 9.96875 -6.96875 C 10.226562 -6.351562 10.359375 -5.695312 10.359375 -5 C 10.359375 -4.289062 10.226562 -3.625 9.96875 -3 C 9.707031 -2.382812 9.347656 -1.84375 8.890625 -1.375 C 8.441406 -0.914062 7.914062 -0.550781 7.3125 -0.28125 C 6.71875 -0.0078125 6.082031 0.125 5.40625 0.125 C 4.726562 0.125 4.085938 -0.0078125 3.484375 -0.28125 C 2.890625 -0.550781 2.367188 -0.914062 1.921875 -1.375 C 1.472656 -1.84375 1.117188 -2.382812 0.859375 -3 C 0.609375 -3.625 0.484375 -4.289062 0.484375 -5 C 0.484375 -5.695312 0.609375 -6.351562 0.859375 -6.96875 C 1.117188 -7.59375 1.472656 -8.140625 1.921875 -8.609375 C 2.378906 -9.078125 2.90625 -9.445312 3.5 -9.71875 C 4.101562 -9.988281 4.742188 -10.125 5.421875 -10.125 Z M 5.421875 -1.265625 C 5.898438 -1.265625 6.347656 -1.359375 6.765625 -1.546875 C 7.179688 -1.742188 7.539062 -2.007812 7.84375 -2.34375 C 8.15625 -2.6875 8.398438 -3.082031 8.578125 -3.53125 C 8.765625 -3.988281 8.859375 -4.476562 8.859375 -5 C 8.859375 -5.507812 8.765625 -5.988281 8.578125 -6.4375 C 8.398438 -6.894531 8.15625 -7.289062 7.84375 -7.625 C 7.539062 -7.96875 7.179688 -8.234375 6.765625 -8.421875 C 6.347656 -8.617188 5.898438 -8.71875 5.421875 -8.71875 C 4.941406 -8.71875 4.492188 -8.617188 4.078125 -8.421875 C 3.660156 -8.234375 3.296875 -7.96875 2.984375 -7.625 C 2.671875 -7.289062 2.421875 -6.894531 2.234375 -6.4375 C 2.054688 -5.988281 1.96875 -5.507812 1.96875 -5 C 1.96875 -4.476562 2.054688 -3.988281 2.234375 -3.53125 C 2.421875 -3.082031 2.671875 -2.6875 2.984375 -2.34375 C 3.296875 -2.007812 3.660156 -1.742188 4.078125 -1.546875 C 4.492188 -1.359375 4.941406 -1.265625 5.421875 -1.265625 Z M 5.421875 -1.265625 "/></g></g></g><g fill="#004aad" fill-opacity="1"><g transform="translate(216.966546, 273.220968)"><g><path d="M 4.8125 -9.984375 C 5.207031 -9.984375 5.578125 -9.90625 5.921875 -9.75 C 6.273438 -9.601562 6.578125 -9.398438 6.828125 -9.140625 C 7.085938 -8.890625 7.289062 -8.59375 7.4375 -8.25 C 7.59375 -7.914062 7.671875 -7.550781 7.671875 -7.15625 C 7.671875 -6.757812 7.59375 -6.382812 7.4375 -6.03125 C 7.289062 -5.6875 7.085938 -5.390625 6.828125 -5.140625 C 6.578125 -4.890625 6.273438 -4.691406 5.921875 -4.546875 C 5.578125 -4.398438 5.207031 -4.328125 4.8125 -4.328125 L 2.21875 -4.3125 L 2.21875 0 L 0.765625 0 L 0.765625 -9.984375 Z M 4.8125 -5.6875 C 5.007812 -5.6875 5.191406 -5.722656 5.359375 -5.796875 C 5.535156 -5.878906 5.691406 -5.988281 5.828125 -6.125 C 5.960938 -6.257812 6.066406 -6.414062 6.140625 -6.59375 C 6.210938 -6.78125 6.25 -6.976562 6.25 -7.1875 C 6.25 -7.382812 6.210938 -7.570312 6.140625 -7.75 C 6.066406 -7.9375 5.960938 -8.097656 5.828125 -8.234375 C 5.691406 -8.367188 5.535156 -8.472656 5.359375 -8.546875 C 5.191406 -8.628906 5.007812 -8.671875 4.8125 -8.671875 L 2.21875 -8.671875 L 2.21875 -5.6875 Z M 4.8125 -5.6875 "/></g></g></g><g fill="#004aad" fill-opacity="1"><g transform="translate(226.43134, 273.220968)"><g><path d="M 6.890625 -9.984375 L 6.890625 -8.65625 L 2.25 -8.65625 L 2.25 -5.9375 L 6.375 -5.9375 L 6.375 -4.578125 L 2.25 -4.578125 L 2.25 -1.359375 L 6.890625 -1.359375 L 6.890625 0 L 0.78125 0 L 0.78125 -9.984375 Z M 6.890625 -9.984375 "/></g></g></g><g fill="#004aad" fill-opacity="1"><g transform="translate(235.43136, 273.220968)"><g><path d="M 9.03125 0 L 7.1875 0 L 4.046875 -4.3125 L 2.296875 -4.3125 L 2.296875 0 L 0.8125 0 L 0.8125 -9.984375 L 4.875 -9.984375 C 5.269531 -9.984375 5.640625 -9.90625 5.984375 -9.75 C 6.335938 -9.601562 6.644531 -9.398438 6.90625 -9.140625 C 7.164062 -8.890625 7.367188 -8.59375 7.515625 -8.25 C 7.671875 -7.914062 7.75 -7.550781 7.75 -7.15625 C 7.75 -6.820312 7.695312 -6.507812 7.59375 -6.21875 C 7.488281 -5.925781 7.34375 -5.660156 7.15625 -5.421875 C 6.976562 -5.191406 6.757812 -4.988281 6.5 -4.8125 C 6.25 -4.644531 5.972656 -4.519531 5.671875 -4.4375 Z M 4.875 -5.6875 C 5.070312 -5.6875 5.257812 -5.722656 5.4375 -5.796875 C 5.613281 -5.878906 5.765625 -5.988281 5.890625 -6.125 C 6.015625 -6.257812 6.113281 -6.414062 6.1875 -6.59375 C 6.269531 -6.78125 6.3125 -6.976562 6.3125 -7.1875 C 6.3125 -7.382812 6.269531 -7.570312 6.1875 -7.75 C 6.113281 -7.9375 6.015625 -8.097656 5.890625 -8.234375 C 5.765625 -8.367188 5.613281 -8.472656 5.4375 -8.546875 C 5.257812 -8.628906 5.070312 -8.671875 4.875 -8.671875 L 2.296875 -8.671875 L 2.296875 -5.671875 Z M 4.875 -5.6875 "/></g></g></g></svg>