<svg xmlns="http://www.w3.org/2000/svg" xmlns:xlink="http://www.w3.org/1999/xlink" width="500" zoomAndPan="magnify" viewBox="0 0 375 374.999991" height="500" preserveAspectRatio="xMidYMid meet" version="1.0"><defs><filter x="0%" y="0%" width="100%" height="100%" id="23ae3abf26"><feColorMatrix values="0 0 0 0 1 0 0 0 0 1 0 0 0 0 1 0 0 0 1 0" color-interpolation-filters="sRGB"/></filter><g/><mask id="ed46f344a4"><g filter="url(#23ae3abf26)"><rect x="-37.5" width="450" fill="#000000" y="-37.499999" height="449.999989" fill-opacity="0.53"/></g></mask><clipPath id="1aaadf26ce"><path d="M 1.144531 0.5 L 166.457031 0.5 L 166.457031 19.367188 L 1.144531 19.367188 Z M 1.144531 0.5 " clip-rule="nonzero"/></clipPath><clipPath id="2106381cd5"><rect x="0" width="167" y="0" height="20"/></clipPath></defs><g fill="#171717" fill-opacity="1"><g transform="translate(31.68404, 204.7148)"><g><path d="M 43.328125 -41.828125 L 43.328125 0 L 35.375 0 L 14.515625 -25.40625 L 14.515625 0 L 4.953125 0 L 4.953125 -41.828125 L 12.96875 -41.828125 L 33.765625 -16.4375 L 33.765625 -41.828125 Z M 43.328125 -41.828125 "/></g></g></g><g fill="#171717" fill-opacity="1"><g transform="translate(78.769869, 204.7148)"><g><path d="M 4.296875 -32.15625 L 13.625 -32.15625 L 13.625 0 L 4.296875 0 Z M 8.96875 -36.640625 C 7.25 -36.640625 5.847656 -37.132812 4.765625 -38.125 C 3.691406 -39.125 3.15625 -40.359375 3.15625 -41.828125 C 3.15625 -43.304688 3.691406 -44.539062 4.765625 -45.53125 C 5.847656 -46.53125 7.25 -47.03125 8.96875 -47.03125 C 10.675781 -47.03125 12.066406 -46.550781 13.140625 -45.59375 C 14.222656 -44.644531 14.765625 -43.453125 14.765625 -42.015625 C 14.765625 -40.460938 14.222656 -39.175781 13.140625 -38.15625 C 12.066406 -37.144531 10.675781 -36.640625 8.96875 -36.640625 Z M 8.96875 -36.640625 "/></g></g></g><g fill="#171717" fill-opacity="1"><g transform="translate(95.560476, 204.7148)"><g><path d="M 19.84375 0.484375 C 16.414062 0.484375 13.335938 -0.222656 10.609375 -1.640625 C 7.878906 -3.054688 5.742188 -5.019531 4.203125 -7.53125 C 2.671875 -10.039062 1.90625 -12.890625 1.90625 -16.078125 C 1.90625 -19.265625 2.671875 -22.113281 4.203125 -24.625 C 5.742188 -27.132812 7.878906 -29.09375 10.609375 -30.5 C 13.335938 -31.914062 16.414062 -32.625 19.84375 -32.625 C 23.226562 -32.625 26.1875 -31.914062 28.71875 -30.5 C 31.25 -29.09375 33.09375 -27.070312 34.25 -24.4375 L 27.015625 -20.5625 C 25.335938 -23.507812 22.925781 -24.984375 19.78125 -24.984375 C 17.351562 -24.984375 15.34375 -24.1875 13.75 -22.59375 C 12.15625 -21 11.359375 -18.828125 11.359375 -16.078125 C 11.359375 -13.328125 12.15625 -11.15625 13.75 -9.5625 C 15.34375 -7.96875 17.351562 -7.171875 19.78125 -7.171875 C 22.96875 -7.171875 25.378906 -8.644531 27.015625 -11.59375 L 34.25 -7.65625 C 33.09375 -5.101562 31.25 -3.109375 28.71875 -1.671875 C 26.1875 -0.234375 23.226562 0.484375 19.84375 0.484375 Z M 19.84375 0.484375 "/></g></g></g><g fill="#171717" fill-opacity="1"><g transform="translate(129.679711, 204.7148)"><g><path d="M 18.109375 -12.609375 L 13.625 -8.1875 L 13.625 0 L 4.296875 0 L 4.296875 -44.34375 L 13.625 -44.34375 L 13.625 -19.25 L 27.25 -32.15625 L 38.375 -32.15625 L 24.984375 -18.53125 L 39.5625 0 L 28.265625 0 Z M 18.109375 -12.609375 "/></g></g></g><g fill="#171717" fill-opacity="1"><g transform="translate(167.921973, 204.7148)"><g/></g></g><g fill="#171717" fill-opacity="1"><g transform="translate(183.63701, 204.7148)"><g><path d="M 24.984375 0.71875 C 20.722656 0.71875 16.867188 -0.207031 13.421875 -2.0625 C 9.972656 -3.914062 7.257812 -6.484375 5.28125 -9.765625 C 3.3125 -13.054688 2.328125 -16.773438 2.328125 -20.921875 C 2.328125 -25.066406 3.3125 -28.78125 5.28125 -32.0625 C 7.257812 -35.351562 9.972656 -37.921875 13.421875 -39.765625 C 16.867188 -41.617188 20.742188 -42.546875 25.046875 -42.546875 C 28.671875 -42.546875 31.945312 -41.910156 34.875 -40.640625 C 37.800781 -39.367188 40.257812 -37.535156 42.25 -35.140625 L 36.03125 -29.40625 C 33.207031 -32.675781 29.703125 -34.3125 25.515625 -34.3125 C 22.929688 -34.3125 20.617188 -33.742188 18.578125 -32.609375 C 16.546875 -31.472656 14.960938 -29.882812 13.828125 -27.84375 C 12.691406 -25.8125 12.125 -23.503906 12.125 -20.921875 C 12.125 -18.328125 12.691406 -16.015625 13.828125 -13.984375 C 14.960938 -11.953125 16.546875 -10.367188 18.578125 -9.234375 C 20.617188 -8.097656 22.929688 -7.53125 25.515625 -7.53125 C 29.703125 -7.53125 33.207031 -9.179688 36.03125 -12.484375 L 42.25 -6.75 C 40.257812 -4.320312 37.789062 -2.46875 34.84375 -1.1875 C 31.894531 0.0820312 28.609375 0.71875 24.984375 0.71875 Z M 24.984375 0.71875 "/></g></g></g><g fill="#171717" fill-opacity="1"><g transform="translate(226.241301, 204.7148)"><g><path d="M 23.84375 -32.625 C 27.832031 -32.625 31.050781 -31.425781 33.5 -29.03125 C 35.945312 -26.644531 37.171875 -23.101562 37.171875 -18.40625 L 37.171875 0 L 27.84375 0 L 27.84375 -16.96875 C 27.84375 -19.519531 27.285156 -21.421875 26.171875 -22.671875 C 25.054688 -23.929688 23.445312 -24.5625 21.34375 -24.5625 C 18.988281 -24.5625 17.113281 -23.832031 15.71875 -22.375 C 14.320312 -20.925781 13.625 -18.765625 13.625 -15.890625 L 13.625 0 L 4.296875 0 L 4.296875 -44.34375 L 13.625 -44.34375 L 13.625 -28.8125 C 14.863281 -30.039062 16.359375 -30.984375 18.109375 -31.640625 C 19.859375 -32.296875 21.769531 -32.625 23.84375 -32.625 Z M 23.84375 -32.625 "/></g></g></g><g fill="#171717" fill-opacity="1"><g transform="translate(266.335925, 204.7148)"><g><path d="M 17.265625 -32.625 C 22.253906 -32.625 26.082031 -31.4375 28.75 -29.0625 C 31.414062 -26.695312 32.75 -23.125 32.75 -18.34375 L 32.75 0 L 24.03125 0 L 24.03125 -4 C 22.269531 -1.007812 19 0.484375 14.21875 0.484375 C 11.75 0.484375 9.609375 0.0664062 7.796875 -0.765625 C 5.984375 -1.609375 4.597656 -2.765625 3.640625 -4.234375 C 2.691406 -5.710938 2.21875 -7.390625 2.21875 -9.265625 C 2.21875 -12.253906 3.34375 -14.601562 5.59375 -16.3125 C 7.84375 -18.03125 11.316406 -18.890625 16.015625 -18.890625 L 23.421875 -18.890625 C 23.421875 -20.921875 22.800781 -22.484375 21.5625 -23.578125 C 20.332031 -24.671875 18.484375 -25.21875 16.015625 -25.21875 C 14.304688 -25.21875 12.625 -24.945312 10.96875 -24.40625 C 9.3125 -23.875 7.90625 -23.148438 6.75 -22.234375 L 3.40625 -28.75 C 5.15625 -29.976562 7.253906 -30.929688 9.703125 -31.609375 C 12.160156 -32.285156 14.679688 -32.625 17.265625 -32.625 Z M 16.5625 -5.796875 C 18.15625 -5.796875 19.566406 -6.164062 20.796875 -6.90625 C 22.035156 -7.644531 22.910156 -8.726562 23.421875 -10.15625 L 23.421875 -13.453125 L 17.03125 -13.453125 C 13.207031 -13.453125 11.296875 -12.195312 11.296875 -9.6875 C 11.296875 -8.488281 11.765625 -7.539062 12.703125 -6.84375 C 13.640625 -6.144531 14.925781 -5.796875 16.5625 -5.796875 Z M 16.5625 -5.796875 "/></g></g></g><g fill="#171717" fill-opacity="1"><g transform="translate(302.008759, 204.7148)"><g><path d="M 23.84375 -32.625 C 27.832031 -32.625 31.050781 -31.425781 33.5 -29.03125 C 35.945312 -26.644531 37.171875 -23.101562 37.171875 -18.40625 L 37.171875 0 L 27.84375 0 L 27.84375 -16.96875 C 27.84375 -19.519531 27.285156 -21.421875 26.171875 -22.671875 C 25.054688 -23.929688 23.445312 -24.5625 21.34375 -24.5625 C 18.988281 -24.5625 17.113281 -23.832031 15.71875 -22.375 C 14.320312 -20.925781 13.625 -18.765625 13.625 -15.890625 L 13.625 0 L 4.296875 0 L 4.296875 -32.15625 L 13.203125 -32.15625 L 13.203125 -28.390625 C 14.441406 -29.742188 15.976562 -30.785156 17.8125 -31.515625 C 19.644531 -32.253906 21.65625 -32.625 23.84375 -32.625 Z M 23.84375 -32.625 "/></g></g></g><g mask="url(#ed46f344a4)"><g transform="matrix(1, 0, 0, 1, 180, 187)"><g clip-path="url(#2106381cd5)"><g clip-path="url(#1aaadf26ce)"><path fill="#0cc0df" d="M 1.144531 0.5 L 166.4375 0.5 L 166.4375 19.367188 L 1.144531 19.367188 Z M 1.144531 0.5 " fill-opacity="1" fill-rule="nonzero"/></g></g></g></g><g fill="#004aad" fill-opacity="1"><g transform="translate(108.814437, 273.639856)"><g><path d="M 15.140625 -9.859375 L 11.8125 0 L 10.71875 0 L 7.828125 -8.40625 L 4.921875 0 L 3.84375 0 L 0.515625 -9.859375 L 1.59375 -9.859375 L 4.4375 -1.375 L 7.375 -9.859375 L 8.34375 -9.859375 L 11.25 -1.34375 L 14.140625 -9.859375 Z M 15.140625 -9.859375 "/></g></g></g><g fill="#004aad" fill-opacity="1"><g transform="translate(125.718702, 273.639856)"><g><path d="M 8.578125 -0.90625 L 8.578125 0 L 1.609375 0 L 1.609375 -9.859375 L 8.359375 -9.859375 L 8.359375 -8.953125 L 2.640625 -8.953125 L 2.640625 -5.453125 L 7.75 -5.453125 L 7.75 -4.5625 L 2.640625 -4.5625 L 2.640625 -0.90625 Z M 8.578125 -0.90625 "/></g></g></g><g fill="#004aad" fill-opacity="1"><g transform="translate(136.402143, 273.639856)"><g><path d="M 7.8125 -5.078125 C 8.457031 -4.941406 8.957031 -4.664062 9.3125 -4.25 C 9.664062 -3.832031 9.84375 -3.289062 9.84375 -2.625 C 9.84375 -1.78125 9.53125 -1.128906 8.90625 -0.671875 C 8.28125 -0.222656 7.359375 0 6.140625 0 L 1.609375 0 L 1.609375 -9.859375 L 5.859375 -9.859375 C 6.953125 -9.859375 7.800781 -9.632812 8.40625 -9.1875 C 9.007812 -8.75 9.3125 -8.128906 9.3125 -7.328125 C 9.3125 -6.773438 9.175781 -6.304688 8.90625 -5.921875 C 8.644531 -5.546875 8.28125 -5.265625 7.8125 -5.078125 Z M 2.640625 -9 L 2.640625 -5.421875 L 5.78125 -5.421875 C 6.582031 -5.421875 7.195312 -5.570312 7.625 -5.875 C 8.0625 -6.175781 8.28125 -6.617188 8.28125 -7.203125 C 8.28125 -7.785156 8.0625 -8.226562 7.625 -8.53125 C 7.195312 -8.84375 6.582031 -9 5.78125 -9 Z M 6.125 -0.859375 C 7.007812 -0.859375 7.675781 -1.007812 8.125 -1.3125 C 8.570312 -1.613281 8.796875 -2.082031 8.796875 -2.71875 C 8.796875 -3.945312 7.90625 -4.5625 6.125 -4.5625 L 2.640625 -4.5625 L 2.640625 -0.859375 Z M 6.125 -0.859375 "/></g></g></g><g fill="#004aad" fill-opacity="1"><g transform="translate(148.281891, 273.639856)"><g/></g></g><g fill="#004aad" fill-opacity="1"><g transform="translate(153.237108, 273.639856)"><g><path d="M 1.609375 -9.859375 L 5.609375 -9.859375 C 6.660156 -9.859375 7.582031 -9.648438 8.375 -9.234375 C 9.175781 -8.816406 9.796875 -8.234375 10.234375 -7.484375 C 10.671875 -6.734375 10.890625 -5.878906 10.890625 -4.921875 C 10.890625 -3.960938 10.671875 -3.109375 10.234375 -2.359375 C 9.796875 -1.617188 9.175781 -1.039062 8.375 -0.625 C 7.582031 -0.207031 6.660156 0 5.609375 0 L 1.609375 0 Z M 5.5625 -0.90625 C 6.425781 -0.90625 7.179688 -1.070312 7.828125 -1.40625 C 8.472656 -1.75 8.972656 -2.222656 9.328125 -2.828125 C 9.691406 -3.441406 9.875 -4.140625 9.875 -4.921875 C 9.875 -5.710938 9.691406 -6.410156 9.328125 -7.015625 C 8.972656 -7.617188 8.472656 -8.09375 7.828125 -8.4375 C 7.179688 -8.78125 6.425781 -8.953125 5.5625 -8.953125 L 2.640625 -8.953125 L 2.640625 -0.90625 Z M 5.5625 -0.90625 "/></g></g></g><g fill="#004aad" fill-opacity="1"><g transform="translate(166.13021, 273.639856)"><g><path d="M 8.578125 -0.90625 L 8.578125 0 L 1.609375 0 L 1.609375 -9.859375 L 8.359375 -9.859375 L 8.359375 -8.953125 L 2.640625 -8.953125 L 2.640625 -5.453125 L 7.75 -5.453125 L 7.75 -4.5625 L 2.640625 -4.5625 L 2.640625 -0.90625 Z M 8.578125 -0.90625 "/></g></g></g><g fill="#004aad" fill-opacity="1"><g transform="translate(176.813652, 273.639856)"><g><path d="M 9.796875 -9.859375 L 5.4375 0 L 4.40625 0 L 0.046875 -9.859375 L 1.171875 -9.859375 L 4.9375 -1.296875 L 8.75 -9.859375 Z M 9.796875 -9.859375 "/></g></g></g><g fill="#004aad" fill-opacity="1"><g transform="translate(187.905248, 273.639856)"><g><path d="M 8.578125 -0.90625 L 8.578125 0 L 1.609375 0 L 1.609375 -9.859375 L 8.359375 -9.859375 L 8.359375 -8.953125 L 2.640625 -8.953125 L 2.640625 -5.453125 L 7.75 -5.453125 L 7.75 -4.5625 L 2.640625 -4.5625 L 2.640625 -0.90625 Z M 8.578125 -0.90625 "/></g></g></g><g fill="#004aad" fill-opacity="1"><g transform="translate(198.588691, 273.639856)"><g><path d="M 1.609375 -9.859375 L 2.640625 -9.859375 L 2.640625 -0.90625 L 8.171875 -0.90625 L 8.171875 0 L 1.609375 0 Z M 1.609375 -9.859375 "/></g></g></g><g fill="#004aad" fill-opacity="1"><g transform="translate(208.146195, 273.639856)"><g><path d="M 5.90625 0.078125 C 4.9375 0.078125 4.050781 -0.132812 3.25 -0.5625 C 2.457031 -1 1.835938 -1.597656 1.390625 -2.359375 C 0.953125 -3.117188 0.734375 -3.972656 0.734375 -4.921875 C 0.734375 -5.867188 0.953125 -6.722656 1.390625 -7.484375 C 1.835938 -8.242188 2.457031 -8.84375 3.25 -9.28125 C 4.050781 -9.71875 4.9375 -9.9375 5.90625 -9.9375 C 6.882812 -9.9375 7.765625 -9.71875 8.546875 -9.28125 C 9.335938 -8.851562 9.957031 -8.253906 10.40625 -7.484375 C 10.851562 -6.722656 11.078125 -5.867188 11.078125 -4.921875 C 11.078125 -3.972656 10.851562 -3.113281 10.40625 -2.34375 C 9.957031 -1.582031 9.335938 -0.988281 8.546875 -0.5625 C 7.765625 -0.132812 6.882812 0.078125 5.90625 0.078125 Z M 5.90625 -0.84375 C 6.6875 -0.84375 7.390625 -1.019531 8.015625 -1.375 C 8.648438 -1.726562 9.144531 -2.210938 9.5 -2.828125 C 9.851562 -3.453125 10.03125 -4.148438 10.03125 -4.921875 C 10.03125 -5.691406 9.851562 -6.390625 9.5 -7.015625 C 9.144531 -7.640625 8.648438 -8.128906 8.015625 -8.484375 C 7.390625 -8.835938 6.6875 -9.015625 5.90625 -9.015625 C 5.132812 -9.015625 4.429688 -8.835938 3.796875 -8.484375 C 3.160156 -8.128906 2.660156 -7.640625 2.296875 -7.015625 C 1.941406 -6.390625 1.765625 -5.691406 1.765625 -4.921875 C 1.765625 -4.148438 1.941406 -3.453125 2.296875 -2.828125 C 2.660156 -2.210938 3.160156 -1.726562 3.796875 -1.375 C 4.429688 -1.019531 5.132812 -0.84375 5.90625 -0.84375 Z M 5.90625 -0.84375 "/></g></g></g><g fill="#004aad" fill-opacity="1"><g transform="translate(221.222259, 273.639856)"><g><path d="M 5.296875 -9.859375 C 6.554688 -9.859375 7.539062 -9.554688 8.25 -8.953125 C 8.957031 -8.347656 9.3125 -7.519531 9.3125 -6.46875 C 9.3125 -5.425781 8.957031 -4.601562 8.25 -4 C 7.539062 -3.40625 6.554688 -3.109375 5.296875 -3.109375 L 2.640625 -3.109375 L 2.640625 0 L 1.609375 0 L 1.609375 -9.859375 Z M 5.265625 -4.03125 C 6.242188 -4.03125 6.988281 -4.242188 7.5 -4.671875 C 8.019531 -5.097656 8.28125 -5.695312 8.28125 -6.46875 C 8.28125 -7.269531 8.019531 -7.882812 7.5 -8.3125 C 6.988281 -8.738281 6.242188 -8.953125 5.265625 -8.953125 L 2.640625 -8.953125 L 2.640625 -4.03125 Z M 5.265625 -4.03125 "/></g></g></g><g fill="#004aad" fill-opacity="1"><g transform="translate(232.595339, 273.639856)"><g><path d="M 8.578125 -0.90625 L 8.578125 0 L 1.609375 0 L 1.609375 -9.859375 L 8.359375 -9.859375 L 8.359375 -8.953125 L 2.640625 -8.953125 L 2.640625 -5.453125 L 7.75 -5.453125 L 7.75 -4.5625 L 2.640625 -4.5625 L 2.640625 -0.90625 Z M 8.578125 -0.90625 "/></g></g></g><g fill="#004aad" fill-opacity="1"><g transform="translate(243.278776, 273.639856)"><g><path d="M 8.328125 0 L 6.078125 -3.171875 C 5.828125 -3.140625 5.566406 -3.125 5.296875 -3.125 L 2.640625 -3.125 L 2.640625 0 L 1.609375 0 L 1.609375 -9.859375 L 5.296875 -9.859375 C 6.554688 -9.859375 7.539062 -9.554688 8.25 -8.953125 C 8.957031 -8.347656 9.3125 -7.519531 9.3125 -6.46875 C 9.3125 -5.707031 9.117188 -5.0625 8.734375 -4.53125 C 8.347656 -4 7.789062 -3.613281 7.0625 -3.375 L 9.46875 0 Z M 5.265625 -4.015625 C 6.242188 -4.015625 6.988281 -4.226562 7.5 -4.65625 C 8.019531 -5.09375 8.28125 -5.695312 8.28125 -6.46875 C 8.28125 -7.269531 8.019531 -7.882812 7.5 -8.3125 C 6.988281 -8.738281 6.242188 -8.953125 5.265625 -8.953125 L 2.640625 -8.953125 L 2.640625 -4.015625 Z M 5.265625 -4.015625 "/></g></g></g></svg>